<svg xmlns="http://www.w3.org/2000/svg" width="93.103" height="75.473" viewBox="0 0 93.103 75.473"><defs><style>.a{fill:#767777;}</style></defs><path class="a" d="M665.446,2640.094a1.831,1.831,0,0,1-1.755-1.315,30.913,30.913,0,0,1,2.275-23.181,21.5,21.5,0,0,1,9.6-9.586,25.243,25.243,0,0,1,12.692-2.639c7.119.358,13.107,3.5,16.425,8.437,3.318-4.934,9.305-8.079,16.425-8.437a25.252,25.252,0,0,1,12.692,2.639,21.5,21.5,0,0,1,9.6,9.586,30.914,30.914,0,0,1,2.29,23.129,1.83,1.83,0,0,1-3.514-1.026,27.363,27.363,0,0,0-2.051-20.467,17.871,17.871,0,0,0-7.983-7.958,21.568,21.568,0,0,0-10.85-2.247c-7.127.359-12.836,3.955-14.9,9.386a1.831,1.831,0,0,1-3.423,0c-2.062-5.431-7.77-9.027-14.9-9.386a21.562,21.562,0,0,0-10.85,2.247,17.871,17.871,0,0,0-7.984,7.958,27.361,27.361,0,0,0-2.038,20.512,1.833,1.833,0,0,1-1.757,2.348Z" transform="translate(-658.132 -2603.34)"/><path class="a" d="M736.3,2887.248a5.746,5.746,0,0,1-3.324-1.056c-13.257-9.378-23.093-16.554-28.931-23.482-1.08-1.281-2.086-2.586-2.992-3.88a1.831,1.831,0,0,1,3-2.1c.843,1.2,1.782,2.423,2.792,3.62,5.558,6.6,15.213,13.632,28.246,22.853a2.1,2.1,0,0,0,2.42,0c13.033-9.221,22.688-16.257,28.246-22.853.794-.942,1.547-1.9,2.239-2.847a1.831,1.831,0,1,1,2.957,2.159c-.741,1.016-1.548,2.041-2.4,3.047-5.838,6.928-15.674,14.1-28.931,23.482A5.748,5.748,0,0,1,736.3,2887.248Z" transform="translate(-689.751 -2811.774)"/><path class="a" d="M679.836,2726.714h-.05c-1.445-.038-1.974-1.2-3.427-4.886-.787-1.992-1.816-4.764-3.058-8.234-.752-2.1-1.493-4.208-2.136-6.056l-1.927,7.777a1.83,1.83,0,0,1-1.777,1.39H639.8a1.831,1.831,0,0,1,0-3.661h26.225l3.073-12.4a1.83,1.83,0,0,1,3.51-.148c2.471,7.277,5.252,15.1,6.992,19.575,1.159-3.416,2.785-8.267,4-11.906a1.831,1.831,0,0,1,3.188-.536l2.88,3.747,5.787-20.491a1.83,1.83,0,0,1,1.761-1.333h.022a1.83,1.83,0,0,1,1.751,1.375l5.807,22.625h24.447a1.83,1.83,0,1,1,0,3.66H703.377a1.829,1.829,0,0,1-1.773-1.375l-4.471-17.422-4.932,17.464a1.83,1.83,0,0,1-3.213.618l-3-3.91c-1.506,4.5-4.017,11.975-4.4,12.924A1.876,1.876,0,0,1,679.836,2726.714Z" transform="translate(-637.972 -2674.477)"/></svg>