<?xml version="1.0" encoding="utf-8"?>
<!-- Generator: Adobe Illustrator 26.0.0, SVG Export Plug-In . SVG Version: 6.00 Build 0)  -->
<svg version="1.1" id="Layer_1" xmlns="http://www.w3.org/2000/svg" xmlns:xlink="http://www.w3.org/1999/xlink" x="0px" y="0px"
	 viewBox="0 0 111.8 122.9" style="enable-background:new 0 0 111.8 122.9;" xml:space="preserve">
<style type="text/css">
	.st0{fill-rule:evenodd;clip-rule:evenodd;fill:#474747;}
</style>
<g>
	<path class="st0" d="M55.7,0c20.8,13.2,39.7,19.5,55.8,18c2.8,57.1-18.3,90.8-55.6,104.9C19.8,109.7-1.5,77.4,0.1,17.1
		C19.1,18.1,37.7,14,55.7,0L55.7,0z M33.8,66.8c-1.2-1-1.3-2.8-0.3-4c1-1.2,2.8-1.3,4-0.3l11.5,9.9l25.2-27.7c1-1.2,2.8-1.2,4-0.2
		c1.1,1,1.2,2.8,0.2,4l-27,29.7l0,0c-1,1.1-2.8,1.2-3.9,0.2L33.8,66.8L33.8,66.8z"/>
</g>
</svg>
