<?xml version="1.0" encoding="utf-8"?>
<!-- Generator: Adobe Illustrator 26.0.0, SVG Export Plug-In . SVG Version: 6.00 Build 0)  -->
<svg version="1.1" id="Layer_1" xmlns="http://www.w3.org/2000/svg" xmlns:xlink="http://www.w3.org/1999/xlink" x="0px" y="0px"
	 viewBox="0 0 122.9 74.3" style="enable-background:new 0 0 122.9 74.3;" xml:space="preserve">
<style type="text/css">
	.st0{fill-rule:evenodd;clip-rule:evenodd;fill:#474747;}
</style>
<g>
	<path class="st0" d="M94.4,18.7l-18-0.1V6.5c0-1.8-0.7-3.4-1.9-4.6C73.3,0.7,71.7,0,69.9,0H20.1c-1.8,0-3.4,0.7-4.6,1.9
		c-1.2,1.2-1.9,2.8-1.9,4.6c0,1,0.8,1.8,1.8,1.8s1.8-0.8,1.8-1.8c0-0.8,0.3-1.6,0.9-2.1c0.5-0.5,1.3-0.9,2.1-0.9h49.8
		c0.8,0,1.6,0.3,2.1,0.9s0.9,1.3,0.9,2.1v55.4h-10c-1,0-1.8,0.8-1.8,1.8c0,1,0.8,1.8,1.8,1.8h11.7c1,0,1.8-0.8,1.8-1.8v-2h10.7
		c0.8-18.4,27.3-21,29.9,0h5.8l-1.8-19.2L102,35.2L94.4,18.7L94.4,18.7z M2.7,37.5c-1.5,0-2.7-0.8-2.7-1.8S1.2,34,2.7,34h23.9
		c1.5,0,2.6,0.8,2.6,1.8s-1.2,1.8-2.6,1.8H2.7L2.7,37.5z M8.1,28c-1.1,0-2-0.8-2-1.8s0.9-1.8,2-1.8h18.4c1.1,0,2,0.8,2,1.8
		s-0.9,1.8-2,1.8H8.1L8.1,28z M10.6,18.4c-1.1,0-2-0.8-2-1.8s0.9-1.8,2-1.8h15.9c1.1,0,2,0.8,2,1.8s-0.9,1.8-2,1.8H10.6L10.6,18.4z
		 M26.5,61.9c1,0,1.8,0.8,1.8,1.8s-0.8,1.8-1.8,1.8h-6.4c-1.8,0-3.4-0.8-4.6-2c-1.2-1.2-1.9-2.9-1.9-4.7v-13c0-1,0.8-1.8,1.8-1.8
		s1.8,0.8,1.8,1.8v13c0,0.8,0.4,1.7,0.9,2.2c0.5,0.6,1.3,0.9,2.1,0.9L26.5,61.9L26.5,61.9z M44.5,50.4c-6.6,0-12,5.4-12,12
		s5.4,12,12,12s12-5.4,12-12C56.4,55.7,51.1,50.4,44.5,50.4L44.5,50.4z M44.5,57.8c-2.5,0-4.6,2.1-4.6,4.6c0,2.5,2.1,4.6,4.6,4.6
		c2.5,0,4.6-2.1,4.6-4.6C49.1,59.8,47,57.8,44.5,57.8L44.5,57.8z M102.1,50.4c-6.6,0-12,5.4-12,12s5.4,12,12,12s12-5.4,12-12
		C114.1,55.7,108.7,50.4,102.1,50.4L102.1,50.4z M102.1,57.8c-2.5,0-4.6,2.1-4.6,4.6c0,2.5,2.1,4.6,4.6,4.6s4.6-2.1,4.6-4.6
		C106.7,59.8,104.6,57.8,102.1,57.8L102.1,57.8z M89.8,23.8l-8.9-0.1v11.5h15L89.8,23.8L89.8,23.8z"/>
</g>
</svg>
