<?xml version="1.0" encoding="utf-8"?>
<!-- Generator: Adobe Illustrator 26.0.0, SVG Export Plug-In . SVG Version: 6.00 Build 0)  -->
<svg version="1.1" id="Layer_1" xmlns="http://www.w3.org/2000/svg" xmlns:xlink="http://www.w3.org/1999/xlink" x="0px" y="0px"
	 viewBox="0 0 122.9 74.3" style="enable-background:new 0 0 122.9 74.3;" xml:space="preserve">
<style type="text/css">
	.st0{fill-rule:evenodd;clip-rule:evenodd;fill:#474747;stroke:#474747;stroke-miterlimit:10;}
</style>
<g>
	<path class="st0" d="M93.6,19.2L76,19.1V7.3c0-1.8-0.7-3.3-1.9-4.5C73,1.7,71.5,1,69.7,1H21.1c-1.8,0-3.3,0.7-4.5,1.9
		s-1.9,2.7-1.9,4.5c0,1,0.8,1.8,1.8,1.8s1.8-0.8,1.8-1.8c0-0.8,0.3-1.6,0.9-2c0.5-0.5,1.3-0.9,2-0.9h48.6c0.8,0,1.6,0.3,2,0.9
		c0.5,0.6,0.9,1.3,0.9,2v54H63c-1,0-1.8,0.8-1.8,1.8c0,1,0.8,1.8,1.8,1.8h11.4c1,0,1.8-0.8,1.8-1.8v-2h10.4c0.8-18,26.6-20.5,29.2,0
		h5.7l-1.8-18.7L101,35.3L93.6,19.2L93.6,19.2z M4.1,37.6c-1.5,0-2.6-0.8-2.6-1.8s1.2-1.7,2.6-1.7h23.3c1.5,0,2.5,0.8,2.5,1.8
		s-1.2,1.8-2.5,1.8L4.1,37.6L4.1,37.6z M9.4,28.3c-1.1,0-2-0.8-2-1.8s0.9-1.8,2-1.8h18c1.1,0,2,0.8,2,1.8s-0.9,1.8-2,1.8H9.4
		L9.4,28.3z M11.8,18.9c-1.1,0-2-0.8-2-1.8c0-1,0.9-1.8,2-1.8h15.5c1.1,0,2,0.8,2,1.8c0,1-0.9,1.8-2,1.8H11.8L11.8,18.9z M27.4,61.4
		c1,0,1.8,0.8,1.8,1.8c0,1-0.8,1.8-1.8,1.8h-6.2c-1.8,0-3.3-0.8-4.5-2s-1.9-2.8-1.9-4.6V45.7c0-1,0.8-1.8,1.8-1.8s1.8,0.8,1.8,1.8
		v12.7c0,0.8,0.4,1.7,0.9,2.1c0.5,0.6,1.3,0.9,2,0.9H27.4L27.4,61.4z M44.9,50.2c-6.4,0-11.7,5.3-11.7,11.7s5.3,11.7,11.7,11.7
		s11.7-5.3,11.7-11.7C56.5,55.3,51.4,50.2,44.9,50.2L44.9,50.2z M44.9,57.4c-2.4,0-4.5,2-4.5,4.5s2,4.5,4.5,4.5c2.4,0,4.5-2,4.5-4.5
		C49.4,59.3,47.4,57.4,44.9,57.4L44.9,57.4z M101.1,50.2c-6.4,0-11.7,5.3-11.7,11.7s5.3,11.7,11.7,11.7s11.7-5.3,11.7-11.7
		C112.8,55.3,107.5,50.2,101.1,50.2L101.1,50.2z M101.1,57.4c-2.4,0-4.5,2-4.5,4.5s2,4.5,4.5,4.5s4.5-2,4.5-4.5
		C105.6,59.3,103.5,57.4,101.1,57.4L101.1,57.4z M89.1,24.2l-8.7-0.1v11.2h14.6L89.1,24.2L89.1,24.2z"/>
</g>
</svg>
