<?xml version="1.0" encoding="utf-8"?>
<!-- Generator: Adobe Illustrator 26.0.0, SVG Export Plug-In . SVG Version: 6.00 Build 0)  -->
<svg version="1.1"
	 id="Layer_1" shape-rendering="geometricPrecision" image-rendering="optimizeQuality" text-rendering="geometricPrecision"
	 xmlns="http://www.w3.org/2000/svg" xmlns:xlink="http://www.w3.org/1999/xlink" x="0px" y="0px" viewBox="0 0 110 110"
	 style="enable-background:new 0 0 110 110;" xml:space="preserve">
<style type="text/css">
	.st0{fill-rule:evenodd;clip-rule:evenodd;fill:#474747;}
</style>
<path class="st0" d="M82.9,68.7l11.4,26.5L80,95l-11.7,9.5l-10.2-25c3-0.7,5.9-2.2,8.9-4.6l0.4-0.3l0,0l0.2-0.2l0,0
	c0.4-0.3,0.8-0.6,1.1-0.9c0.7,0.1,1.5,0.1,2.4,0c1.3-0.1,2.8-0.3,4.3-0.8c1.4-0.4,2.7-1,3.9-1.6c1.3-0.7,2.3-1.4,3.4-2.4l0,0
	L82.9,68.7L82.9,68.7z M53.8,0c1.4,0,2.7,0.2,3.9,0.6c1.1,0.4,2.1,0.9,3,1.5c1.1,0.6,2,1.4,3,2.3c1,0.8,2.1,1.7,3,2.3h0.1
	C67.3,7,68.4,7,69.6,7.1c4.1,0.2,8.5,0.4,11.8,5.2l0.2,0.3c2.3,3.7,2.5,6.4,2.7,9v0.2c0.1,0.8,0.2,1.6,0.4,2.3
	c0.3,0.8,0.8,1.7,1.7,2.9c2.4,3.1,3.9,5.9,4.5,8.6c0.7,3.2,0.3,6-1.3,8.9c-1.2,2.1-2.7,3.3-4,4.5c-0.4,0.4-0.7,0.4-0.8,0.5l-0.1,0.2
	c-0.3,0.7-0.3,1.5-0.3,2.4c0,2.1-0.1,4.5-1.6,7.5c-1,1.9-2.2,3.5-3.8,4.8c-1.5,1.3-3.3,2.2-5.3,3c-2.1,0.6-3.7,0.5-5.3,0.4
	c-0.6,0-1-0.2-1.1-0.1c-1.1,0.4-2.3,1.4-3.4,2.3l-0.3,0.2c-7,5.6-13.2,5.1-19.8-0.2c-1.1-0.9-2.3-1.9-3.4-2.3
	c-0.1-0.1-0.9,0.1-1.1,0.1c-1.5,0.1-3.2,0.3-5.3-0.4c-2-0.6-3.8-1.6-5.3-2.9c-1.5-1.3-2.8-3-3.8-4.8c-1.5-3-1.6-5.3-1.6-7.5
	c0-1,0-1.9-0.4-2.6c-0.1-0.3-0.4-0.1-0.8-0.5c-1.3-1.2-2.9-2.4-4-4.5c-1.6-2.9-2.1-5.7-1.3-8.9c0.6-2.7,2.1-5.5,4.5-8.6
	c0.9-1.2,1.3-2.1,1.7-2.9l0.1-0.2c0.2-0.7,0.3-1.4,0.4-2.2v-0.3c0.2-2.7,0.4-5.5,2.9-9.2c3.3-4.9,7.7-5.1,11.8-5.3
	c1.3-0.1,2.4-0.1,2.8-0.3c1.1-0.6,2.1-1.5,3-2.3l0.3-0.2c0.9-0.8,1.8-1.5,2.7-2.1c1-0.6,2-1.2,3-1.5C51.1,0.2,52.4,0,53.8,0z
	 M53.8,3.9c1.8-0.1,3.2,0.5,4.7,1.4c1.8,1.2,3.9,3.4,6.4,4.8c3.5,2.1,10-0.8,13.4,4.2c2,2.9,2.1,5.2,2.1,7.4c0.2,2.4,0.6,4.7,3,8
	c4.1,5.5,4.9,9,2.9,12.8c-1.4,2.6-4.5,4-5.2,5.6c-1.5,3.5,0.2,6.1-1.9,10.1c-1.4,2.8-3.6,4.7-6.5,5.6c-2.5,0.8-4.9-0.4-6.9,0.4
	c-3.5,1.4-6,4.8-8.8,5.7c-1.1,0.4-2.1,0.4-3.2,0.4c-1.1,0-2.1-0.2-3.2-0.4c-2.8-0.9-5.3-4.2-8.8-5.7c-2-0.8-4.5,0.4-6.9-0.4
	c-3-1-5.1-2.8-6.5-5.6c-2.1-4-0.4-6.6-1.9-10.1c-0.7-1.6-3.8-3-5.2-5.6c-2.1-3.8-1.3-7.3,2.9-12.8c2.5-3.3,2.9-5.6,3-8
	c0.2-2.2,0.3-4.6,2.1-7.4c3.3-5,9.9-2.1,13.4-4.2c2.5-1.4,4.6-3.7,6.4-4.8C50.7,4.4,52,3.8,53.8,3.9L53.8,3.9z M54.2,27.5l2.7,6.3
	l6.8,0.6c0.3,0,0.5,0.3,0.5,0.6l0,0c0,0.2-0.1,0.3-0.2,0.4l-5.2,4.5l1.5,6.7c0.1,0.3-0.1,0.6-0.4,0.6c-0.2,0-0.3,0-0.4-0.1l-5.8-3.5
	l-5.9,3.5c-0.3,0.2-0.6,0.1-0.7-0.2C47,46.8,47,46.7,47,46.6l1.5-6.7l-5.2-4.5c-0.3-0.2-0.3-0.5-0.1-0.8l0,0
	c0.1-0.1,0.3-0.2,0.4-0.2l6.8-0.6l2.7-6.3c0.1-0.3,0.4-0.4,0.7-0.3C54.1,27.3,54.1,27.4,54.2,27.5L54.2,27.5z M53.7,16.1
	c11.8,0,21.4,9.6,21.4,21.4s-9.6,21.4-21.4,21.4s-21.4-9.6-21.4-21.4C32.3,25.7,41.9,16.1,53.7,16.1L53.7,16.1z M53.7,19.8
	c9.9,0,17.8,8,17.8,17.8s-8,17.8-17.8,17.8s-17.8-8-17.8-17.8C35.9,27.8,43.8,19.8,53.7,19.8z M53.6,80l-11.9,30L30,100.5l-14.2,0.2
	l12.5-29.6l0.3,0.1c1.2,0.6,2.5,1.2,3.9,1.6c1.6,0.5,3,0.7,4.3,0.8c1,0.1,1.7,0,2.4,0c0.4,0.3,0.7,0.6,1.2,0.9l0,0
	c4.3,3.5,8.7,5.4,13.3,5.5H53.6L53.6,80z"/>
</svg>
