<?xml version="1.0" encoding="utf-8"?>
<!-- Generator: Adobe Illustrator 26.0.0, SVG Export Plug-In . SVG Version: 6.00 Build 0)  -->
<svg version="1.1" id="Layer_1" xmlns="http://www.w3.org/2000/svg" xmlns:xlink="http://www.w3.org/1999/xlink" x="0px" y="0px"
	 viewBox="0 0 110 110" style="enable-background:new 0 0 110 110;" xml:space="preserve">
<style type="text/css">
	.st0{fill:#474747;}
</style>
<path class="st0" d="M88.5,10.6c-8.3,1.8-16.4,4.1-24.4,7c-1,0.4-2.1,0.8-3,1.2c-0.4,2.5-0.8,5.1-1.3,7.6c-0.8,3.8-1.4,7.8-1.7,11.7
	l1-1.1c0.1-0.1,0.1-0.1,0.2-0.2C68.4,27.3,78.2,18.6,88.5,10.6z M64.5,71.2c-10.9,5.2-20.8,5.3-29.8,5.4h-2.4
	c-2,2.8-3.9,5.7-5.9,8.6c-0.1,0.1-0.1,0.2-0.2,0.2L25,87.1c1.8-0.4,3.5-0.7,5.2-0.9c8-1.3,16.1-2.7,29.1-9
	C61.2,75.3,62.9,73.2,64.5,71.2L64.5,71.2z M35.2,72.5c10.3-0.1,21.8-0.5,34.6-9c1.1-1.9,2.2-3.8,3.2-5.6c-5.4,1.7-11.8,2.3-18.2,3
	c-4.1,0.5-8.3,0.8-12,1.7c-1,1.3-2.1,2.7-3.1,4.1c-0.1,0.1-0.1,0.2-0.2,0.3C38,68.7,36.6,70.6,35.2,72.5L35.2,72.5z M18.9,89.3
	l0.1-0.2c1-1.7,2.2-3.4,3.3-5.1c-1.8-4.9-2-11.5-2.3-17.8c-0.1-2.4-0.2-4.8-0.4-7c-0.8,2-1.4,3.9-2.1,5.9
	c-3.1,10.4-4.3,21.3-3.6,32.1C15.6,94.5,17.2,91.9,18.9,89.3L18.9,89.3z M49.9,85.8c-6.1,2.2-12.5,3.7-19,4.6c-2.9,0.5-5.9,1-9,1.7
	c-1.8,2.8-3.5,5.5-5.2,8.5C30.8,97.3,41.5,92.2,49.9,85.8L49.9,85.8z M22.9,52.1C23.8,56,24,60.9,24.2,66c0.2,4.7,0.4,9.6,1.1,13.4
	c1.4-2.1,2.7-4,4.1-6l0.1-0.1l0,0c2-2.8,3.9-5.5,5.9-8.2c-1.6-4.4-1.3-11.7-1-19c0.2-3.8,0.3-7.4,0.2-10.5
	C29.9,40.5,25.9,46.1,22.9,52.1z M38.5,32c0.5,3.8,0.3,9,0.1,14.3s-0.4,10.8,0.1,14.6l1.2-1.5l0,0c0.1-0.1,0.1-0.2,0.2-0.3
	c3.5-4.4,6.9-8.6,10.6-12.8c1.2-1.3,2.3-2.7,3.6-4c-0.7-5.5,0.5-11.2,1.6-16.8c0.3-1.7,0.7-3.2,0.9-4.8C50.1,23.7,44,27.4,38.5,32z
	 M46.4,57.6c2.5-0.4,5.2-0.7,7.8-0.9c7.9-0.8,15.9-1.7,21.4-4.4c2.3-4.6,4.2-9.4,6.2-14.2c-5.6,1.5-10.9,1.7-16.3,2
	c-1.2,0.1-2.5,0.1-3.9,0.2c-2.7,2.8-5.4,5.7-8,8.7C51.3,51.9,48.9,54.7,46.4,57.6L46.4,57.6z M58.3,15.6l0.3-0.1
	c1.4-0.6,2.7-1.1,4.1-1.7c11.4-4.2,23.6-7,35.1-9.4c0.5-0.1,0.9,0,1.4,0.2c1,0.6,1.4,1.8,0.8,2.8c-4.7,8.6-8.5,17.8-12.1,26.9
	C75.5,65.2,63.1,95.8,13,105.6h-0.1c-1.1,0.1-2.2-0.7-2.3-1.8c-1.9-13.4-0.8-27,3.1-40c1.3-4.4,3-8.7,5.1-12.9l0,0v-0.1l0,0
	c3.5-7.1,8.2-13.6,13.8-19.2c0.8-0.8,1.5-1.4,2.3-2.1l0,0C41.6,23.8,49.5,19.2,58.3,15.6L58.3,15.6z M65.9,36c6-0.3,11.8-0.7,18-2.8
	l0.2-0.4c2.7-6.8,5.4-13.5,8.6-20.2C83.2,19.7,74.2,27.5,65.9,36z"/>
</svg>
