<?xml version="1.0" encoding="UTF-8"?>
<svg id="Layer_1" data-name="Layer 1" xmlns="http://www.w3.org/2000/svg" viewBox="0 0 93.12 75.48">
  <defs>
    <style>
      .cls-1 {
        fill: #f68428;
        opacity: .53;
        stroke: #000;
        stroke-width: 4px;
      }

      .cls-1, .cls-2 {
        stroke-linejoin: round;
      }

      .cls-3 {
        fill: #767777;
      }

      .cls-2 {
        fill: none;
        stroke: #767777;
        stroke-width: 2px;
      }
    </style>
  </defs>
  <path class="cls-3" d="m7.61,36.76c-.81,0-1.53-.54-1.76-1.31-2.29-7.73-1.48-16.05,2.28-23.18,2.08-4.15,5.45-7.51,9.6-9.59C21.66.71,26.03-.2,30.42.04c7.12.36,13.11,3.5,16.42,8.44C50.17,3.54,56.15.4,63.27.04c4.39-.24,8.76.67,12.69,2.64,4.15,2.08,7.52,5.44,9.6,9.59,3.74,7.12,4.56,15.41,2.29,23.13-.28.97-1.3,1.53-2.27,1.24-.97-.28-1.53-1.3-1.24-2.27,2-6.83,1.27-14.17-2.05-20.47-1.73-3.44-4.53-6.24-7.98-7.96-3.36-1.68-7.1-2.46-10.85-2.25-7.13.36-12.84,3.96-14.9,9.39-.36.95-1.42,1.42-2.36,1.06-.49-.19-.87-.57-1.06-1.06-2.06-5.43-7.77-9.03-14.9-9.39-3.75-.21-7.49.57-10.85,2.25-3.45,1.72-6.25,4.51-7.98,7.96-3.33,6.31-4.06,13.67-2.04,20.51.28.97-.27,1.99-1.24,2.27-.17.05-.34.07-.51.07h0Z"/>
  <path class="cls-3" d="m46.85,75.48c-1.19,0-2.35-.37-3.32-1.06-13.26-9.38-23.09-16.55-28.93-23.48-1.08-1.28-2.09-2.59-2.99-3.88-.58-.83-.38-1.97.45-2.55s1.97-.38,2.55.45h0c.84,1.2,1.78,2.42,2.79,3.62,5.56,6.6,15.21,13.63,28.25,22.85.73.51,1.69.51,2.42,0,13.03-9.22,22.69-16.26,28.25-22.85.79-.94,1.55-1.9,2.24-2.85.58-.83,1.72-1.03,2.55-.45.83.58,1.03,1.72.45,2.55-.01.02-.03.04-.04.06-.74,1.02-1.55,2.04-2.4,3.05-5.84,6.93-15.67,14.1-28.93,23.48-.97.69-2.13,1.06-3.32,1.06Z"/>
  <path class="cls-1" d="m46.87,22.87s-5.46-9.83-13.54-6.15c-4.84,2.2-7.04,7.96-5.14,12.94,5.1,13.38,18.85,25.75,18.85,25.75l17.54-24.04c1.1-1.51,1.9-3.26,2.11-5.13.44-3.98-1.42-7.34-5.32-9.26-3.56-1.75-9.69-2.21-14.5,5.89Z"/>
  <polyline class="cls-2" points=".02 41.82 33.52 41.18 37.07 26.97 43.11 51.51 46.87 22.87 53.74 46.22 57.36 30.02 66.47 40.84 93.12 40.84"/>
</svg>