<?xml version="1.0" encoding="utf-8"?>
<!-- Generator: Adobe Illustrator 26.0.0, SVG Export Plug-In . SVG Version: 6.00 Build 0)  -->
<svg version="1.1" id="Layer_1" xmlns="http://www.w3.org/2000/svg" xmlns:xlink="http://www.w3.org/1999/xlink" x="0px" y="0px"
	 viewBox="0 0 110 110" style="enable-background:new 0 0 110 110;" xml:space="preserve">
<style type="text/css">
	.st0{fill-rule:evenodd;clip-rule:evenodd;fill:#474747;}
</style>
<g>
	<path class="st0" d="M54.8,0.2c18.5,11.7,35.3,17.3,49.6,16C107,66.9,88.2,96.9,55,109.4C23,97.7,4,69,5.4,15.4
		C22.3,16.3,38.8,12.7,54.8,0.2L54.8,0.2z M35.3,59.5c-1-0.9-1.2-2.5-0.3-3.5c0.9-1,2.5-1.2,3.5-0.3l10.2,8.8l22.4-24.6
		c0.9-1,2.5-1.1,3.5-0.2c1,0.9,1.1,2.5,0.2,3.5l-24,26.4l0,0c-0.9,1-2.4,1.1-3.5,0.2L35.3,59.5L35.3,59.5z M54.8,6.5
		c16.4,10.4,31.2,15.3,43.9,14.1C101,65.5,84.4,92,55,103.1C26.6,92.8,9.9,67.4,11.1,19.9C26,20.7,40.7,17.5,54.8,6.5L54.8,6.5z"/>
</g>
</svg>
