<?xml version="1.0" encoding="utf-8"?>
<!-- Generator: Adobe Illustrator 26.0.0, SVG Export Plug-In . SVG Version: 6.00 Build 0)  -->
<svg version="1.1" id="Layer_1" xmlns="http://www.w3.org/2000/svg" xmlns:xlink="http://www.w3.org/1999/xlink" x="0px" y="0px"
	 viewBox="0 0 98.9 122.9" style="enable-background:new 0 0 98.9 122.9;" xml:space="preserve">
<style type="text/css">
	.st0{fill:#474747;}
</style>
<g>
	<path class="st0" d="M96.5,58c-0.9-0.6-1.9-0.9-2.9-0.9l0.8-1.2c0.8-1.2,1-2.7,0.8-4c-0.3-1.3-1.1-2.6-2.3-3.4l0,0
		c-0.9-0.6-2-0.9-3.1-0.9l0.6-1c0.8-1.2,1-2.7,0.8-4c-0.3-1.3-1.1-2.6-2.3-3.4c-1.2-0.8-2.7-1-4-0.8s-2.6,1-3.4,2.3l-0.6,1
		c-0.4-1-1.1-1.8-2-2.4c-1.2-0.8-2.7-1-4-0.8s-2.6,1-3.4,2.3L57.8,62c-0.3,0.3-0.6,0.7-0.8,1l0,0l-0.8,1.2l0-0.2
		c-0.3-1.2-0.5-2.5-0.6-2.9c-0.6-3.1-2.4-4.9-4.3-5.4c-0.9-0.2-1.8-0.2-2.6,0c-0.8,0.2-1.7,0.7-2.3,1.3c-1.6,1.5-2.5,4.1-1.6,7.6
		l0,0.1l0,0v0c0.7,3.6,1,11.8,3.2,17.6L35.6,97.1c-0.2,0.3-0.6,0.7-1,1.1c-2.7,3-4.5,5-2.3,10.1c0.8,1.9,2.2,3.7,3.8,5.4
		c3.1,3.2,7.4,5.9,11.6,7.5c4.3,1.7,8.6,2.2,11.5,1c0.7-0.3,1.3-0.7,1.8-1.2c0.1-0.1,0.2-0.2,0.3-0.4l10.6-23
		c3.3-2.1,7.1-3.4,9.3-6.7l5.5-8.3c0.2-0.3,0.4-0.6,0.5-0.9c0.1-0.1,0.2-0.2,0.2-0.3l0,0L98,65.3c0.8-1.2,1-2.7,0.8-4
		C98.5,60,97.8,58.8,96.5,58L96.5,58L96.5,58z M5.2,11.6c1.1,0,2.1,0.3,2.9,0.8l0-1.4c0-1.5,0.6-2.8,1.5-3.8s2.3-1.6,3.7-1.6
		c0,0,0,0,0,0c1.1,0,2.1,0.3,3,0.9l0-1.2c0-1.5,0.6-2.8,1.5-3.8S20.2,0,21.6,0s2.8,0.6,3.8,1.5S27,3.8,27,5.2v1.2
		c0.8-0.6,1.9-0.9,3-0.9c1.5,0,2.8,0.6,3.8,1.5c1,0.9,1.6,2.3,1.6,3.7l0.3,25.2c0.1,0.4,0.1,0.9,0.1,1.3l0,0l0,1.5l0.1-0.1
		c0.9-0.9,1.8-1.8,2.1-2.1c2.2-2.3,4.7-2.8,6.6-2.2c0.9,0.3,1.6,0.8,2.2,1.4c0.6,0.6,1,1.5,1.3,2.3c0.5,2.1-0.1,4.8-2.8,7.2l0,0l0,0
		l0,0c-2.6,2.7-7.2,9.4-12.2,13l2.3,19.1c0,0.3,0.1,0.9,0.2,1.5c0.6,4,1.1,6.7-3.5,9.7c-1.7,1.1-3.8,1.9-6.1,2.5
		c-4.3,1-9.4,0.9-13.8,0c-4.6-0.9-8.4-2.8-10.2-5.4c-0.4-0.6-0.7-1.2-0.9-1.9C1,83.7,1,83.5,1,83.3l3.5-25.1
		c-1.7-3.5-4.1-6.8-4.2-10.7l-0.1-9.9c0-0.3,0-0.7,0-1c0-0.1-0.1-0.2-0.1-0.4v0L0,16.9c0-1.5,0.6-2.8,1.5-3.8
		C2.5,12.2,3.8,11.6,5.2,11.6L5.2,11.6L5.2,11.6z M30.4,57.8c4.6-3.9,11.5-12.3,13.2-14.1c0,0,0.1-0.1,0.1-0.1l0.8,0.9l-0.8-0.9
		c1.9-1.7,2.4-3.6,2.1-4.9c-0.1-0.5-0.4-0.9-0.7-1.3c-0.3-0.3-0.7-0.6-1.2-0.7c-1.2-0.3-2.7,0-4.2,1.6c-0.3,0.3-1.3,1.3-2.2,2.2
		c-0.8,0.8-1.7,1.6-2.3,1.9c-0.2,0.1-0.4,0.2-0.7,0.2l0,0l-1-0.5l-0.3-4.7c-0.1-8.9-0.3-17.6-0.4-26.5c0-0.8-0.3-1.5-0.9-2
		c-0.5-0.5-1.3-0.8-2-0.8c-0.8,0-1.5,0.3-2,0.9c-0.5,0.5-0.8,1.3-0.8,2.1l0.2,17.3l-2.5,0L24.6,5.3c0-0.8-0.3-1.5-0.9-2
		s-1.3-0.8-2-0.8s-1.5,0.3-2,0.9c-0.5,0.5-0.8,1.3-0.8,2.1l0.3,22.8l-2.5,0l-0.2-17.3c0-0.8-0.3-1.5-0.9-2c-0.5-0.5-1.3-0.8-2-0.8
		s-1.5,0.3-2,0.9c-0.5,0.5-0.8,1.3-0.8,2.1l0.2,17.3l-2.4,0L8.2,16.8c0-0.8-0.3-1.5-0.9-2S6.1,14,5.3,14s-1.5,0.3-2,0.9
		c-0.5,0.5-0.8,1.3-0.8,2l0.1,11.5l0,1.8l0.1,7.2c0,0.1,0,0.2,0,0.2l0.1,9.9c0,2.7,2.8,7.4,4,10C6.9,57.8,7,58,6.9,58.2l0,0
		L3.3,83.4c0.1,0.4,0.3,0.7,0.5,1c1.4,2.1,4.7,3.6,8.7,4.4c4.1,0.8,8.9,0.9,12.9,0c2.1-0.5,3.9-1.2,5.4-2.1c3.3-2.2,3-4.3,2.5-7.4
		c-0.1-0.4-0.1-0.8-0.2-1.5L30.4,57.8L30.4,57.8z M2.6,31.5L2.6,31.5L2.6,31.5L2.6,31.5L2.6,31.5L2.6,31.5z M50.4,83.2
		c-1.8-5.8-3-16.6-3.4-19c0-0.1,0-0.1,0-0.2l-1.2,0.3l1.2-0.3c-0.7-2.5-0.1-4.3,0.9-5.3c0.4-0.3,0.8-0.6,1.3-0.7
		c0.5-0.1,0.9-0.1,1.4,0c1.2,0.3,2.2,1.5,2.7,3.6c0.1,0.5,0.4,1.8,0.7,3c0.3,1.1,0.6,2.3,0.9,2.9c0.1,0.2,0.2,0.4,0.4,0.5l0,0l1,0.1
		l2.9-3.8C64,57,68.8,49.7,73.7,42.3c0.4-0.7,1.1-1.1,1.8-1.2c0.7-0.2,1.5,0,2.2,0.4c0.7,0.4,1.1,1.1,1.2,1.8c0.2,0.7,0,1.5-0.4,2.2
		L69,59.9l2.1,1.4l12.6-19c0.4-0.7,1.1-1.1,1.8-1.2c0.7-0.2,1.5,0,2.2,0.4c0.7,0.4,1.1,1.1,1.2,1.8c0.2,0.7,0,1.5-0.4,2.2L75.9,64.5
		l2.1,1.4l9.6-14.5c0.4-0.7,1.1-1.1,1.8-1.2c0.7-0.2,1.5,0,2.2,0.4c0.7,0.4,1.1,1.1,1.2,1.8c0.2,0.7,0,1.5-0.4,2.2l-9.6,14.5l2,1.3
		l6.3-9.6c0.4-0.7,1.1-1.1,1.8-1.2c0.7-0.2,1.5,0,2.2,0.4c0.7,0.4,1.1,1.1,1.2,1.8c0.2,0.7,0,1.5-0.4,2.2l-6.3,9.6l-1,1.5l-4,6
		c0,0.1-0.1,0.1-0.1,0.2l-5.5,8.3c-1.5,2.2-6.4,4.7-8.8,6.2c-0.2,0.1-0.3,0.3-0.4,0.5l0,0l-10.7,23.2c-0.3,0.2-0.6,0.4-1,0.6
		c-2.3,1-5.9,0.4-9.7-1c-3.9-1.5-7.9-4.1-10.8-7c-1.5-1.5-2.7-3.1-3.4-4.7c-1.6-3.7-0.2-5.2,1.9-7.6c0.3-0.3,0.6-0.6,1-1.2
		L50.4,83.2L50.4,83.2z M88,76.1L88,76.1L88,76.1L88,76.1L88,76.1L88,76.1z"/>
</g>
</svg>
