<?xml version="1.0" encoding="utf-8"?>
<!-- Generator: Adobe Illustrator 27.5.0, SVG Export Plug-In . SVG Version: 6.00 Build 0)  -->
<svg version="1.1" id="Layer_1" xmlns="http://www.w3.org/2000/svg" xmlns:xlink="http://www.w3.org/1999/xlink" x="0px" y="0px"
	 viewBox="0 0 100.1 68.6" style="enable-background:new 0 0 100.1 68.6;" xml:space="preserve">
<style type="text/css">
	.st0{fill:#767777;}
	.st1{opacity:0.52;fill:#F68428;}
	.st2{fill:#FFFFFF;}
</style>
<path class="st0" d="M85.8,63.9c-0.3,0-0.7,0-1-0.1l-66.6-18c-2.1-0.6-3.3-2.7-2.8-4.8L25.8,2.9c0.6-2.1,2.7-3.3,4.8-2.8l66.6,18
	c2.1,0.6,3.3,2.7,2.8,4.8L89.6,61C89.2,62.7,87.6,63.9,85.8,63.9z M29.6,3.9L19.3,42l66.6,18l0,0l10.3-38.1L29.6,3.9z"/>
<path class="st1" d="M34.9,11.1l53,14.3c0.7,0.2,1.2,1,1,1.7l-6.7,24.6c-0.2,0.7-1,1.2-1.7,1h0l-53-14.3c-0.7-0.2-1.2-1-1-1.7
	l6.7-24.6C33.4,11.4,34.1,10.9,34.9,11.1C34.9,11.1,34.9,11.1,34.9,11.1z"/>
<g transform="translate(0 0)">
	<path class="st2" d="M12.4,23.2h52c5.8,0,10.4,4.7,10.4,10.4v22.5c0,5.8-4.7,10.4-10.4,10.4h-52C6.6,66.6,2,61.9,2,56.2V33.6
		C2,27.9,6.6,23.2,12.4,23.2z"/>
	<path class="st0" d="M72.9,68.6h-69c-2.2,0-3.9-1.8-3.9-3.9V25.2c0-2.2,1.8-3.9,3.9-3.9h69c2.2,0,3.9,1.8,3.9,3.9v39.5
		C76.8,66.8,75.1,68.6,72.9,68.6z M72.9,25.2l-69,0l0,39.5l69,0L72.9,25.2z"/>
</g>
<path class="st1" d="M18.6,30.8h39.6c5,0,9,4,9,9V50c0,5-4,9-9,9H18.6c-5,0-9-4-9-9V39.8C9.6,34.8,13.6,30.8,18.6,30.8z"/>
<g transform="translate(33.577 15.192)">
	<path class="st2" d="M1.9,33.8c0.3,0.4,0.7,0.7,1.1,0.9c0.5,0.3,1,0.4,1.5,0.5v-4.3C2.2,30.3,1.1,29,1.1,27c0-2.3,1.2-3.6,3.3-3.9
		v-1.4h1v1.4c1.2,0,2.4,0.5,3.3,1.3l-1.1,1.5C7,25.3,6.2,25,5.5,25v4.1C7.8,29.6,9,30.9,9,33c0,1-0.3,1.9-1,2.7
		c-0.7,0.7-1.6,1.2-2.6,1.3v2.1h-1V37c-0.7,0-1.5-0.2-2.1-0.5c-0.7-0.3-1.3-0.8-1.8-1.3L1.9,33.8z M4.5,25c-0.4,0.1-0.7,0.3-1,0.6
		c-0.1,0.2-0.2,0.4-0.3,0.6c-0.1,0.3-0.1,0.6-0.1,0.9c0,0.4,0.1,0.8,0.3,1.1c0.3,0.4,0.6,0.6,1.1,0.7L4.5,25z M5.5,35.2
		c0.5-0.1,0.9-0.4,1.2-0.8C6.9,34,7,33.5,7,33c0-0.4-0.1-0.8-0.3-1.2c-0.3-0.4-0.8-0.6-1.2-0.7V35.2z"/>
	<path class="st2" d="M5.5,39.6h-1c-0.3,0-0.5-0.2-0.5-0.5v-1.6c-0.6-0.1-1.3-0.3-1.9-0.5c-0.7-0.4-1.4-0.8-2-1.4
		c-0.2-0.2-0.2-0.5,0-0.7l1.4-1.4c0.2-0.2,0.5-0.2,0.7,0c0,0,0,0,0,0c0.3,0.3,0.6,0.6,1,0.8l0,0c0.2,0.1,0.5,0.2,0.7,0.3v-3.3
		c-1.6-0.5-3.4-1.6-3.3-4.2c0-2.4,1.2-3.9,3.3-4.3v-0.9c0-0.3,0.2-0.5,0.5-0.5h1c0.3,0,0.5,0.2,0.5,0.5v0.9C7.1,22.8,8.2,23.2,9,24
		c0.2,0.2,0.2,0.5,0.1,0.7L8,26.2c-0.2,0.2-0.5,0.3-0.7,0.1c0,0,0,0,0,0c-0.4-0.3-0.8-0.6-1.3-0.7v3.1c1.7,0.5,3.6,1.7,3.5,4.4
		c0,1.1-0.4,2.2-1.1,3c-0.6,0.7-1.5,1.2-2.4,1.4v1.7C6,39.4,5.7,39.6,5.5,39.6C5.5,39.6,5.5,39.6,5.5,39.6z M1.2,35.2
		c0.4,0.3,0.9,0.6,1.3,0.9c0.6,0.3,1.3,0.5,1.9,0.5c0,0.2,0.3,0.4,0.5,0.4c0.2,0,0.4-0.2,0.4-0.4c0.9-0.1,1.7-0.5,2.3-1.2
		c0.6-0.7,0.9-1.5,0.8-2.4c0-1.8-1-3-3.1-3.5c-0.2-0.1-0.4-0.3-0.4-0.5v-0.1c-0.1,0.3-0.3,0.4-0.6,0.4c0,0,0,0-0.1,0
		c-0.5-0.1-1-0.5-1.3-0.9C2.7,28,2.6,27.5,2.6,27c0-0.4,0-0.7,0.2-1c0.1-0.3,0.2-0.5,0.4-0.7l0,0c0.3-0.4,0.8-0.7,1.3-0.7
		c-0.1,0.2,0,0.4,0.2,0.5c0.2,0.1,0.4,0,0.5-0.2c0,0,0-0.1,0-0.1c0.1-0.1,0.2-0.1,0.4-0.1c0.7,0.1,1.4,0.3,2,0.7L8,24.5
		c-0.7-0.6-1.6-0.9-2.6-0.9c0-0.3-0.2-0.4-0.5-0.4c-0.2,0-0.4,0.2-0.4,0.4c-2,0.3-2.9,1.4-2.9,3.5c0,1.7,0.9,2.8,3,3.4
		C4.8,30.5,5,30.7,5,30.9V31c0-0.1,0.1-0.2,0.2-0.3c0.1-0.1,0.3-0.1,0.4-0.1c0.6,0.1,1.2,0.4,1.6,0.9C7.4,32,7.5,32.5,7.5,33
		c0,0.6-0.1,1.1-0.4,1.6c-0.4,0.5-0.9,0.9-1.5,1c-0.2,0-0.3,0-0.4-0.1C5,35.5,5,35.4,4.9,35.3c0,0.3-0.3,0.5-0.6,0.4
		c-0.6-0.1-1.2-0.2-1.7-0.6c-0.3-0.2-0.6-0.4-0.9-0.6L1.2,35.2z M6,31.8v2.6c0.1-0.1,0.2-0.2,0.3-0.3c0.2-0.3,0.3-0.7,0.3-1.1
		c0-0.3-0.1-0.6-0.2-0.9C6.2,32,6.1,31.9,6,31.8L6,31.8z M3.9,25.8c-0.1,0.1-0.2,0.3-0.2,0.5l0,0c-0.1,0.2-0.1,0.5-0.1,0.7
		c0,0.3,0.1,0.6,0.2,0.8C3.9,27.9,3.9,28,4,28L3.9,25.8C3.9,25.8,3.9,25.8,3.9,25.8L3.9,25.8z"/>
</g>
</svg>
