<svg xmlns="http://www.w3.org/2000/svg" width="88.418" height="95.311" viewBox="0 0 88.418 95.311"><defs><style>.a{fill:#fabf8f;}.b{fill:#767777;}</style></defs><path class="a" d="M1490.229,3412.549c-.88-11.137,4.517-27.662,19.132-34.078-19.132,0-34.81,13.8-36.082,30.331C1475.525,3408.877,1488.1,3411.636,1490.229,3412.549Z" transform="translate(-1471.461 -3367.674)"/><path class="a" d="M1700.007,3412.549c.706-13.669-4.517-27.662-19.132-34.078v33.2h9.6Z" transform="translate(-1642.975 -3367.674)"/><path class="b" d="M1672.229,3405.724a1.818,1.818,0,0,1-.44-3.583c5.354-1.34,14.146-1.145,19.39-.129a60.35,60.35,0,0,1,15.117-3.534,29.845,29.845,0,0,0-10.507-18.3,36.271,36.271,0,0,0-23.559-8.532,1.818,1.818,0,1,1,0-3.637,39.91,39.91,0,0,1,25.918,9.4,33.136,33.136,0,0,1,11.977,22.607,1.818,1.818,0,0,1-1.752,1.957,55.232,55.232,0,0,0-16.294,3.6,1.829,1.829,0,0,1-1.1.105c-4.657-1.007-13.322-1.261-18.306-.013A1.848,1.848,0,0,1,1672.229,3405.724Z" transform="translate(-1634.33 -3359.031)"/><path class="b" d="M1500.72,3405.724a1.847,1.847,0,0,1-.443-.055c-4.985-1.248-13.649-.994-18.306.013a1.828,1.828,0,0,1-1.1-.105,55.232,55.232,0,0,0-16.295-3.6,1.818,1.818,0,0,1-1.752-1.957,33.137,33.137,0,0,1,11.976-22.607,39.914,39.914,0,0,1,25.918-9.4,1.818,1.818,0,0,1,0,3.637,36.272,36.272,0,0,0-23.559,8.532,29.844,29.844,0,0,0-10.507,18.3,60.351,60.351,0,0,1,15.117,3.534c5.244-1.016,14.036-1.21,19.39.129a1.819,1.819,0,0,1-.44,3.583Z" transform="translate(-1462.818 -3359.031)"/><path class="b" d="M1672.232,3605.6a1.818,1.818,0,0,1-1.818-1.818v-29.02a1.818,1.818,0,0,1,3.636,0v29.02A1.818,1.818,0,0,1,1672.232,3605.6Z" transform="translate(-1634.332 -3528.348)"/><path class="b" d="M1564.594,3408a1.213,1.213,0,0,1-1.208-1.116,38.973,38.973,0,0,1,3.874-19.434,32.2,32.2,0,0,1,15.98-15.849,1.212,1.212,0,1,1,.974,2.219,30.019,30.019,0,0,0-14.773,14.687,36.493,36.493,0,0,0-3.638,18.186,1.212,1.212,0,0,1-1.113,1.3Z" transform="translate(-1545.826 -3361.91)"/><path class="b" d="M1694.244,3408h-.063a1.212,1.212,0,0,1-1.148-1.274,38.084,38.084,0,0,0-3.691-19.147,29.152,29.152,0,0,0-14.718-13.758,1.212,1.212,0,1,1,.975-2.219,31.507,31.507,0,0,1,15.9,14.88,40.491,40.491,0,0,1,3.95,20.369A1.212,1.212,0,0,1,1694.244,3408Z" transform="translate(-1637.211 -3361.91)"/><path class="b" d="M1675.113,3407.124a1.213,1.213,0,0,1-1.212-1.213v-33.2a1.212,1.212,0,0,1,2.424,0v33.2A1.213,1.213,0,0,1,1675.113,3407.124Z" transform="translate(-1637.213 -3361.912)"/><path class="b" d="M1649.745,3651.658h-1.028a3.868,3.868,0,0,1-3.26-5.949l9.728-15.234a4.735,4.735,0,0,1,4.009-2.2h21.134a.037.037,0,0,0,.032-.018l10.278-18.34a6.038,6.038,0,0,1,5.262-3.083h1.855a3.868,3.868,0,0,1,3.371,5.764l-12.865,22.874a4.762,4.762,0,0,1-4.145,2.425h-22.1a.035.035,0,0,0-.03.016l-7.185,11.008A6.014,6.014,0,0,1,1649.745,3651.658Zm9.448-19.743a1.114,1.114,0,0,0-.944.517l-9.728,15.234a.232.232,0,0,0,.195.356h1.028a2.389,2.389,0,0,0,2.007-1.087l7.185-11.007a3.661,3.661,0,0,1,3.075-1.666h22.1a1.121,1.121,0,0,0,.975-.57l12.865-22.874a.231.231,0,0,0-.2-.345H1695.9a2.4,2.4,0,0,0-2.09,1.225l-10.278,18.34a3.676,3.676,0,0,1-3.2,1.877Z" transform="translate(-1613.21 -3556.348)"/><path class="b" d="M1745.718,3660.444h-19.612a1.818,1.818,0,1,1,0-3.637h19.612a1.818,1.818,0,1,1,0,3.637Z" transform="translate(-1678.842 -3597.633)"/><path class="b" d="M1742.4,3684.924a1.818,1.818,0,0,1-1.818-1.818v-8.217a1.818,1.818,0,0,1,3.637,0v8.217A1.819,1.819,0,0,1,1742.4,3684.924Z" transform="translate(-1692.304 -3611.07)"/><path class="b" d="M1822.4,3684.924a1.818,1.818,0,0,1-1.818-1.818v-8.217a1.818,1.818,0,0,1,3.637,0v8.217A1.818,1.818,0,0,1,1822.4,3684.924Z" transform="translate(-1758.395 -3611.07)"/><path class="b" d="M1672.232,3323.852a1.819,1.819,0,0,1-1.818-1.82v-3.864a1.818,1.818,0,1,1,3.636,0v3.864A1.819,1.819,0,0,1,1672.232,3323.852Z" transform="translate(-1634.332 -3316.35)"/></svg>