<?xml version="1.0" encoding="utf-8"?>
<!-- Generator: Adobe Illustrator 26.0.0, SVG Export Plug-In . SVG Version: 6.00 Build 0)  -->
<svg version="1.1" id="Layer_1" xmlns="http://www.w3.org/2000/svg" xmlns:xlink="http://www.w3.org/1999/xlink" x="0px" y="0px"
	 viewBox="0 0 110 110" style="enable-background:new 0 0 110 110;" xml:space="preserve">
<style type="text/css">
	.st0{fill:#474747;}
</style>
<g>
	<path class="st0" d="M60,85.2h18.2c1.5-1.5,3.1-3,4.7-4.5c3.4-3.2,7-6.6,10.6-10.8c4.2-4.8,4.6-6.5,5.9-11.2
		c0.2-0.9,0.5-1.9,0.9-3.1l2.2-7.6v-0.1c1.2-3.4,1.3-5.7,0.8-6.9c-0.2-0.4-0.3-0.7-0.6-0.8c-0.2-0.1-0.4-0.2-0.6-0.1
		c-0.6,0.1-1.2,0.4-1.8,1.1l-6.5,15.4c-0.1,0.1-0.1,0.3-0.2,0.4c-0.4,0.7-0.9,1.4-1.6,2L80.5,71.6c-0.6,0.7-1.7,0.8-2.4,0.1
		c-0.7-0.6-0.8-1.7-0.1-2.4l11.5-12.8c0.1-0.1,0.1-0.1,0.2-0.2c1.2-1.1,1.6-2.4,1.3-3.2c-0.1-0.3-0.2-0.5-0.3-0.7
		c-0.2-0.1-0.4-0.2-0.6-0.3l0,0c-1-0.1-2.5,0.6-4.4,2.8l0,0c-0.1,0.1-0.1,0.1-0.2,0.2l-4.5,4l0,0c-4.8,4.5-6.9,5.6-10.6,7.6
		c-0.8,0.4-1.7,0.9-2.7,1.4c-0.4,0.2-0.8,0.5-1.2,0.8c-0.4,0.3-0.8,0.7-1.2,1c-2,1.7-3,3-3.6,4.5c-0.6,1.6-0.8,3.5-1.2,6.1
		c-0.1,1.1-0.2,2.1-0.3,3.1C60,84.2,60,84.7,60,85.2L60,85.2L60,85.2z M50,85.2H31.9c-1.5-1.5-3.1-3-4.7-4.5
		c-3.4-3.2-7-6.6-10.6-10.8c-4.2-4.8-4.6-6.5-5.9-11.2c-0.2-0.9-0.5-1.9-0.8-3.1L7.7,48v-0.1c-1.2-3.4-1.3-5.7-0.8-6.9
		c0.2-0.4,0.3-0.7,0.6-0.8C7.5,40,7.8,39.9,8,40c0.6,0.1,1.2,0.4,1.8,1l6.5,15.4c0.1,0.1,0.1,0.3,0.2,0.4c0.4,0.7,0.9,1.4,1.6,2
		l11.5,12.8c0.6,0.7,1.7,0.8,2.4,0.1c0.7-0.6,0.8-1.7,0.1-2.4L20.6,56.5c-0.1-0.1-0.1-0.1-0.2-0.2c-1.2-1.1-1.6-2.4-1.3-3.2
		c0.1-0.3,0.2-0.5,0.3-0.7c0.2-0.1,0.4-0.2,0.6-0.3l0,0c1-0.1,2.5,0.6,4.4,2.8l0,0c0.1,0.1,0.1,0.1,0.2,0.2L29,59l0,0
		c4.8,4.5,6.9,5.6,10.6,7.6c0.8,0.4,1.7,0.9,2.7,1.4c0.4,0.2,0.8,0.5,1.2,0.8s0.8,0.7,1.2,1c2,1.7,3,3,3.6,4.5
		c0.6,1.6,0.8,3.5,1.2,6.1c0.1,1.1,0.2,2.1,0.3,3.1C50,84.2,50,84.7,50,85.2L50,85.2L50,85.2z M27.6,85.8c-0.3,0.3-0.4,0.7-0.4,1.1
		V97c0,0.9,0.8,1.7,1.7,1.7h22.9c0.9,0,1.7-0.8,1.7-1.7c0-4.4,0.2-9.1-0.1-13.5c-0.1-1.1-0.2-2.2-0.3-3.3c-0.3-2.9-0.6-4.9-1.4-6.9
		c-0.8-2-2.1-3.8-4.6-5.9c-0.4-0.4-0.9-0.8-1.4-1.1c-0.5-0.4-1.1-0.8-1.7-1.1c-1-0.5-1.9-1-2.8-1.5c-3.5-1.8-5.4-2.8-9.9-7.1
		l-0.1-0.1l-4.3-3.8c-2.6-3.1-5.2-4.1-7.2-3.9l0,0l0,0c-1,0.1-1.8,0.5-2.5,1.1l-4.4-10.4l0,0c-0.1-0.2-0.2-0.3-0.3-0.4
		c-1.2-1.5-2.7-2.3-4.2-2.4c-1-0.1-2,0.1-2.8,0.7c-0.8,0.5-1.5,1.3-1.9,2.5c-0.7,1.9-0.7,5,0.7,9.2l2.2,7.6c0.3,1.1,0.6,2.2,0.8,3.1
		c1.4,5.3,1.9,7.1,6.6,12.6c3.7,4.3,7.4,7.7,10.9,11.1C25.8,84.1,26.7,84.9,27.6,85.8L27.6,85.8L27.6,85.8z M50.1,88.6v6.7H30.6
		v-6.7C37.1,88.6,43.6,88.6,50.1,88.6L50.1,88.6z M82.4,85.8c0.3,0.3,0.4,0.7,0.4,1.1V97c0,0.9-0.8,1.7-1.7,1.7H58.2
		c-0.9,0-1.7-0.8-1.7-1.7c0-4.5-0.2-9,0.1-13.5c0.1-1.1,0.2-2.2,0.3-3.3c0.3-2.9,0.6-4.9,1.4-6.9c0.8-2,2.1-3.8,4.6-5.9
		c0.4-0.4,0.9-0.8,1.4-1.1c0.5-0.4,1.1-0.8,1.7-1.1c1-0.5,1.9-1,2.8-1.5c3.5-1.8,5.4-2.8,9.9-7.1l0.1-0.1l4.3-3.8
		c2.6-3.1,5.2-4.1,7.2-3.9l0,0l0,0c1,0.1,1.8,0.5,2.5,1.1l4.4-10.4l0,0c0.1-0.2,0.2-0.3,0.3-0.4c1.2-1.5,2.7-2.3,4.2-2.4
		c1-0.1,2,0.1,2.8,0.7c0.8,0.5,1.5,1.3,1.9,2.5c0.7,1.9,0.7,5-0.7,9.2l-2.2,7.6c-0.3,1.1-0.6,2.2-0.8,3.1c-1.4,5.3-1.9,7.1-6.6,12.6
		c-3.7,4.3-7.4,7.7-10.9,11.1C84.2,84.1,83.3,84.9,82.4,85.8L82.4,85.8L82.4,85.8z M59.9,88.6v6.7h19.5v-6.7
		C72.9,88.6,66.4,88.6,59.9,88.6L59.9,88.6z"/>
	<path class="st0" d="M81.3,9.4c-3.9,0.8-7.7,1.9-11.5,3.3c-0.5,0.2-1,0.4-1.4,0.6c-0.2,1.2-0.4,2.4-0.6,3.6
		c-0.4,1.8-0.7,3.7-0.8,5.5l0.5-0.5c0,0,0-0.1,0.1-0.1C71.8,17.2,76.4,13.1,81.3,9.4z M70,37.9c-5.1,2.4-9.8,2.5-14,2.5h-1.1
		c-0.9,1.3-1.9,2.7-2.8,4.1c0,0,0,0.1-0.1,0.1l-0.5,0.8c0.8-0.2,1.6-0.3,2.4-0.4c3.8-0.6,7.5-1.3,13.7-4.3
		C68.4,39.8,69.2,38.8,70,37.9L70,37.9z M56.2,38.4c4.9-0.1,10.3-0.2,16.3-4.2c0.5-0.9,1-1.8,1.5-2.7c-2.6,0.8-5.6,1.1-8.6,1.4
		c-1.9,0.2-3.9,0.4-5.7,0.8c-0.5,0.6-1,1.3-1.5,1.9c0,0-0.1,0.1-0.1,0.1C57.5,36.7,56.8,37.6,56.2,38.4L56.2,38.4z M48.5,46.4
		L48.5,46.4c0.6-0.9,1.1-1.7,1.6-2.5c-0.8-2.3-0.9-5.4-1.1-8.4c0-1.1-0.1-2.3-0.2-3.3c-0.4,0.9-0.7,1.9-1,2.8
		c-1.5,4.9-2.1,10-1.7,15.1C47,48.8,47.7,47.6,48.5,46.4L48.5,46.4z M63.1,44.7c-2.9,1-5.9,1.7-8.9,2.2c-1.4,0.2-2.8,0.5-4.2,0.8
		c-0.8,1.3-1.6,2.6-2.4,4C54.1,50.1,59.1,47.7,63.1,44.7L63.1,44.7z M50.4,28.9c0.4,1.8,0.5,4.1,0.6,6.5c0.1,2.2,0.2,4.5,0.5,6.3
		c0.6-1,1.3-1.9,2-2.8l0-0.1l0,0c0.9-1.3,1.8-2.6,2.8-3.8c-0.8-2.1-0.6-5.5-0.5-8.9c0.1-1.8,0.1-3.5,0.1-5
		C53.7,23.4,51.8,26,50.4,28.9z M57.7,19.4c0.2,1.8,0.1,4.3,0,6.7c-0.1,2.5-0.2,5.1,0.1,6.9l0.6-0.7l0,0c0,0,0.1-0.1,0.1-0.1
		c1.6-2.1,3.3-4.1,5-6c0.6-0.6,1.1-1.3,1.7-1.9c-0.3-2.6,0.2-5.3,0.7-7.9c0.2-0.8,0.3-1.5,0.4-2.3C63.2,15.5,60.3,17.3,57.7,19.4z
		 M61.5,31.5c1.2-0.2,2.4-0.3,3.7-0.4c3.7-0.4,7.5-0.8,10.1-2.1c1-2.2,2-4.4,2.9-6.7c-2.6,0.7-5.1,0.8-7.7,0.9
		c-0.6,0-1.2,0.1-1.8,0.1c-1.3,1.3-2.5,2.7-3.7,4.1C63.7,28.8,62.6,30.1,61.5,31.5L61.5,31.5z M67,11.7l0.1,0
		c0.6-0.3,1.3-0.5,1.9-0.8c5.3-2,11.1-3.3,16.5-4.4c0.2,0,0.5,0,0.7,0.1c0.5,0.3,0.6,0.8,0.4,1.3c-2.2,4-3.9,8.4-5.7,12.6
		c-5.9,14.6-11.7,28.9-35.3,33.5h-0.1c-0.5,0.1-1-0.3-1.1-0.8c-0.9-6.3-0.4-12.7,1.5-18.8c0.6-2.1,1.4-4.1,2.4-6l0,0v0l0,0
		c1.7-3.3,3.9-6.4,6.5-9c0.3-0.3,0.7-0.7,1.1-1l0,0C59.2,15.6,62.9,13.4,67,11.7L67,11.7z M70.6,21.3c2.8-0.1,5.6-0.3,8.5-1.3
		l0.1-0.2c1.3-3.2,2.6-6.4,4.1-9.5C78.8,13.6,74.6,17.3,70.6,21.3z"/>
</g>
</svg>
