<?xml version="1.0" encoding="utf-8"?>
<!-- Generator: Adobe Illustrator 26.0.0, SVG Export Plug-In . SVG Version: 6.00 Build 0)  -->
<svg version="1.1"
	 id="Layer_1" text-rendering="geometricPrecision" image-rendering="optimizeQuality" shape-rendering="geometricPrecision"
	 xmlns="http://www.w3.org/2000/svg" xmlns:xlink="http://www.w3.org/1999/xlink" x="0px" y="0px" viewBox="0 0 512 488.6"
	 style="enable-background:new 0 0 512 488.6;" xml:space="preserve">
<style type="text/css">
	.st0{fill:#F39D00;}
	.st1{fill:#E53100;}
</style>
<g>
	<path class="st0" d="M362.3,35.5l-0.4-0.2c-20.3,6.9-28.7-13.7-36.3-22.3c9.2,0.4,25.5-6.8,40.2,13.7c0.4,0.1,0.8,0.2,1.2,0.5
		l3.5,2c-4.2-10.1-1.5-21.1-1-29.2c5.1,7,26.7,26,16.2,38.8c2.9,2,5.7,4,8.5,6.2c-3.4-12.1,1.2-25.5,2.6-30.8
		c4.5,6.3,22.4,29.8,9.8,40.9c4.2,3.7,8.2,7.5,12.1,11.4c-2-11.9,4.5-22.8,7.2-29.4c2.8,5.5,19.3,33.2,4.3,42.2
		c2.7,3.2,5.3,6.4,7.8,9.8c-0.4-12.1,7.7-21.8,11.9-29.5c1.7,8.8,13.4,36.2-2.5,43.2c2.4,3.7,4.6,7.5,6.8,11.3
		c1.1-11.9,9.9-20.5,14.9-27.7c0.8,9,9.6,37.7-7.2,42.8c2.2,4.7,4.2,9.6,6.1,14.5c3.2-11.3,13.1-18.4,19.1-24.6
		c-0.6,9,3.6,38.7-13.5,41.6c1.2,4,2.2,8.1,3.1,12.3c4.4-11.2,15.4-17.2,22.2-22.9c-1.7,9.1-0.9,40-19,40.2c0.5,3.9,1,7.8,1.4,11.8
		l0.2,2.3c6.4-10.7,18.7-14.9,26.6-19.5c-3.3,8.9-7.8,40-25.9,37.5c0,4.2-0.1,8.4-0.4,12.6c8.1-10.3,21.4-12.4,30.3-15.7
		c-4.8,8.2-14.5,38.2-32,32.6c-0.7,5.1-1.6,10.2-2.7,15.3c9.7-8.5,23.1-8.3,32.4-10c-6.1,7.2-20.6,34.5-36.6,26.8
		c-1.3,4.3-2.7,8.5-4.2,12.7c10.8-7.6,24.3-5.6,33.8-6.1c-4.8,6.5-24.9,32.1-40.1,21.5c-2,4.5-4.2,8.9-6.5,13.2
		c12.2-6.5,26.1-3.1,35.6-2.2c-7.2,6.2-28.7,29.8-43.9,16.4c-2.5,4-5.1,7.8-7.9,11.6c12.4-4.7,24.9-0.2,34.1,1.9
		c-8,5.2-30.8,27.9-44.6,11.4c-3.7,4.4-7.6,8.6-11.6,12.7c16.3-4.8,28.9,2.4,35.4,5.5c-8.7,4.5-35.8,24.6-46.7,5.1
		c-3.8,3.3-7.6,6.5-11.6,9.5c14.7-1.8,26.9,5.8,36.2,10.1c-9.8,3.1-40.3,19.8-50.4,0c-3.3,2.1-6.6,4.2-10,6.1
		c13.5,1,22.8,11.3,31.2,16.4c-7.8,2.8-38.9,13.4-47.8-7.6c-3.9,1.8-7.8,3.5-11.7,5.1c13,2.7,21,13.7,28.7,19.6
		c-8.1,1.9-40.4,9.1-46.8-13.1c-3.1,1-6.2,1.8-9.3,2.7l0.9,0.5c-16.9,2.7-32.9,7-47.5,13.7c9.6,5.5,18.8,12.1,27.4,19.8
		c18.6,14.5,3.2,29-12.9,7.6c-7.9-8.6-16.8-15.5-26.4-21.1c-9.2,5.5-17.7,12.1-25.3,20.2c-16.5,21.5-31.9,6.7-13-7.8
		c8.3-7.2,17-13.5,26.1-18.8c-13.9-6.2-29-10.3-44.9-13.1l0.9-0.5c-4.2-1.1-8.4-2.3-12.6-3.6c-6.1,22.6-38.7,15.4-46.9,13.5
		c7.9-6,16-17.4,29.5-19.7c-4.2-1.7-8.3-3.5-12.4-5.5c-8.6,21.7-40.2,11-48,8.1c8.7-5.2,18.1-16,32.3-16.5
		c-3.7-2.1-7.3-4.4-10.8-6.7c-9.8,20.7-40.7,3.8-50.7,0.6c9.6-4.5,22.3-12.4,37.7-9.9c-4.3-3.3-8.6-6.8-12.7-10.4
		c-10.6,20.6-38.3,0.1-47-4.5c6.8-3.1,20-10.7,37.1-4.9c-2.2-2.2-4.4-4.5-6.5-6.8c-2.1-2.3-4.2-4.7-6.2-7.1
		C69.4,381.3,46,358,38,352.8c9.6-2.2,22.7-7,35.6-1.3c-3.1-4.2-6-8.5-8.8-12.9c-15.2,14.8-37.3-9.5-44.6-15.7
		c9.9-0.9,24.6-4.6,37.2,3.1c-2.6-4.8-5-9.7-7.3-14.7c-15.4,12.1-36-14.3-41-20.9c9.9,0.5,24.3-1.7,35.4,7.2
		c-1.7-4.7-3.3-9.5-4.8-14.4c-16.4,9.4-31.4-18.9-37.6-26.2c9.7,1.7,24,1.4,33.8,11.3c-1.2-5.6-2.2-11.3-3-17
		C14.9,258.5,4.9,227.4,0,219c9.3,3.4,23.6,5.6,31.5,17.4c-0.3-4.9-0.5-9.7-0.5-14.5c-19,3.9-23.6-28.2-27-37.3
		c8.3,4.8,21.4,9.2,27.5,21.1c0.4-5.3,0.9-10.6,1.7-15.8c-19.2,1-18.3-30.9-20-40.2c7.1,5.9,18.9,12.3,22.8,24.6
		c1-4.7,2.2-9.3,3.5-13.9C21.2,158.6,25.7,128,25,118.8c6.3,6.5,16.9,14,19.5,26.3c2-5.4,4.2-10.7,6.6-15.9
		c-18.1-4.2-8.9-33.8-8.1-43c5.2,7.5,14.7,16.6,15,29.4l0.3-0.5c2.3-4.2,4.7-8.2,7.3-12.2c-17.1-6.3-5-34.5-3.3-43.5
		c4.4,8,13,18.2,11.8,31.1c2.7-3.7,5.6-7.4,8.6-10.9c-16.2-8.5,0.8-36.9,3.6-42.5c2.8,6.9,9.7,18.3,7,30.7
		c4.1-4.3,8.4-8.4,12.9-12.3c-13.7-10.9,4.7-35,9.2-41.3c1.4,5.4,6.2,19.5,2.3,31.8c3-2.3,6-4.5,9.1-6.7
		C115.4,26.5,137.4,7.1,142.6,0c0.5,8.3,3.3,19.6-1.3,29.9c2.3-1.3,4.6-2.6,6.9-3.9c14.5-19.2,30.3-12.3,39.4-12.7
		c-7.7,8.6-16.2,29.5-36.8,22.1c-3.4,1.9-6.7,3.8-10,5.9c14.9,1.6,22.4,14.5,29.2,21.9c-8.6-1.2-36.8,0.8-39.8-14.8
		c-3.2,2.3-6.4,4.7-9.5,7.2c14.9,0.1,23.7,12.1,31.1,18.8c-8.6-0.3-36.2,4.6-41.1-10.3c-5.1,4.6-9.9,9.4-14.5,14.4
		c15.1-2.2,25.6,8.7,33.9,14.4c-8.6,0.8-35.4,9.3-42.1-4.9c-2.9,3.6-5.8,7.3-8.5,11.1c14.5-3.5,26,6,34.8,10.7
		c-8.4,1.7-33.6,12.9-42.1,0.2c-2,3.2-3.9,6.4-5.7,9.8c-0.7,1.3-1.4,2.6-2.1,4c13.4-6.7,26.8,0.2,36.5,2.8
		c-5.1,4.5-30.7,21-41.9,8.3c-2.6,5.8-4.9,11.7-7,17.7c12.5-7.8,26.4-2.7,36.3-1.2c-7.5,4.5-27.9,23.9-40.3,14.3
		c-1.3,4.9-2.5,9.8-3.5,14.8c11.6-9.1,26.1-5.6,36.1-5.4c-6.9,5.4-24.8,26.9-38.4,19.4c-0.7,5.5-1.2,11-1.4,16.6
		c10.5-11.7,26.1-10.3,36.6-11.5c-6.3,6.6-21.7,31.7-36.8,25.2c0.1,4.7,0.3,9.4,0.7,14.1c8.8-12.8,24.4-13.5,34.5-16.1
		c-5.3,7.4-17.1,34.2-32.9,30c0.9,6,2.1,11.9,3.5,17.7c6.8-14.8,22.6-17.6,32.5-21.7c-4.3,8.1-12.6,36.9-29.2,34.1
		c1.5,4.8,3.1,9.5,4.9,14.2c4.5-14.9,19.2-20.3,28-25.9c-2.9,8.7-6,38.3-22.7,38.6c2.2,4.8,4.7,9.6,7.2,14.2
		c2.8-15.7,17.2-22.5,25.6-29c-1,9,0.3,39.6-18.6,40.7c2.7,4.2,5.6,8.3,8.6,12.2c0.5-16.2,14-25,21.5-32.5
		c0.2,9.1,5.7,39.5-13.2,42.9c1.7,2,3.4,4,5.2,5.9c2.6,2.9,5.3,5.7,8.1,8.4c-2-15.9,9.7-26.8,15.8-35.4c1.7,9,12.1,38.1-6,44.5
		c4.1,3.5,8.3,6.9,12.6,10.1c-5.1-16.2,6.2-28.2,10.6-38.2c3.8,6.9,18,34.2,0.3,45.8c5.1,3.3,10.2,6.3,15.6,9.2
		c-8.1-16.8,2.3-30.9,5.6-42.1c4.6,6.8,22,33.5,5.2,47.5c5.3,2.5,10.6,4.7,16.1,6.7c-10.2-14.6-3.1-30.1-2-41.5
		c5.8,5.8,28.1,28.7,14.3,45.7c7.8,2.4,15.9,4.3,24,5.8c0.7,0.1,1.3,0.4,1.8,0.8c13.1,2.9,25.6,7.1,37.6,12.7
		c14.4-6.9,29.7-11.6,45.8-14.6l0.2,0c5.8-1.2,11.6-2.7,17.2-4.4c-14.2-17,8.3-40.1,14.1-45.9c1.1,11.6,8.5,27.3-2.4,42.1
		c5.8-2.1,11.5-4.4,17-7c-17.5-13.9,0.2-41.1,4.8-47.9c3.4,11.4,14.1,25.8,5.2,43c5.7-3,11.2-6.2,16.6-9.7
		c-18.6-11.4-4.1-39.2-0.3-46.2c4.6,10.3,16.3,22.6,10.2,39.4c4.8-3.5,9.4-7.1,13.9-11c-19.3-5.8-8.6-35.6-6.8-44.8
		c6.3,8.9,18.5,20.1,15.6,36.7c5.1-4.9,10-10.1,14.6-15.4c-20.1-2.4-14.4-33.7-14.2-43c7.8,7.8,21.8,16.9,21.5,34
		c3.4-4.4,6.6-9,9.6-13.7c-20,0-18.6-31.5-19.6-40.7c8.7,6.7,23.7,13.7,25.9,30.5c2.9-5.1,5.6-10.4,8.1-15.7
		c-17.6,1-20.9-29.6-23.8-38.5c9.2,5.8,24.6,11.4,28.5,27.6c2.1-5.3,4-10.7,5.6-16.1c-17.4,4.5-25.9-25.5-30.4-33.8
		c10.3,4.2,27,7.1,33.3,23.4c1.6-6.5,2.9-13.1,3.9-19.8c-16.4,5.9-28.6-22.1-34.1-29.6c10.5,2.7,26.9,3.4,35.5,17.6
		c0.5-5.4,0.8-10.8,0.8-16.2c-15.5,8.3-31.5-17.9-37.9-24.7c10.9,1.3,27.3-0.3,37.7,12.9c-0.3-6.2-0.8-12.4-1.6-18.5
		c-13.7,9.1-32.3-13.3-39.4-18.8c10.4-0.3,25.5-4,37.4,6.4c-1.1-5.6-2.4-11.1-3.9-16.5c-12.3,11.3-33.6-8.9-41.2-13.6
		c10.2-1.5,24.8-6.9,37.7,2.1c-2.3-6.6-4.8-13.1-7.7-19.4c-10.8,14.2-37.5-2.9-42.6-7.5c10.1-2.8,24-10.1,38-2
		c-2.7-5.3-5.7-10.4-8.8-15.4c-7.9,14.1-34.1,2.5-42.6,0.7c9.1-4.8,21-14.8,36.2-10.4c-3-4.2-6.2-8.4-9.5-12.4
		c-6,15.4-33.7,6.6-42.5,5.8c8.6-5.9,19.4-17.2,35.2-14.2c-4.9-5.4-10.1-10.5-15.5-15.3c-4.2,15.7-32.5,10.7-41.3,11
		c7.6-6.8,16.6-19.2,32.1-18.8c-3.4-2.7-6.8-5.3-10.4-7.7c-2.4,16.2-31.2,14.1-39.9,15.4c6.9-7.6,14.5-20.8,30-22l-1.9-1.2
		C367.6,38.5,364.9,37,362.3,35.5L362.3,35.5z"/>
	<path class="st1" d="M257.6,55l8.3,19.4l21.1,1.9c0.9,0.1,1.6,0.8,1.6,1.7c0,0.5-0.2,1-0.6,1.3l-16,13.9l4.7,20.6
		c0.2,0.9-0.4,1.8-1.3,2c0,0,0,0,0,0c-0.1,0-0.2,0-0.4,0c-0.3,0-0.7-0.1-0.9-0.3L256,104.8l-18.2,10.9c-0.8,0.5-1.8,0.2-2.3-0.6
		c-0.2-0.4-0.3-0.8-0.2-1.3l4.7-20.6l-15.9-13.9c-0.4-0.3-0.6-0.8-0.6-1.3c0-0.4,0.1-0.8,0.4-1.1c0.3-0.3,0.8-0.5,1.2-0.5l21-1.9
		l8.3-19.5c0.3-0.6,0.9-1,1.6-1S257.3,54.4,257.6,55z M347.3,89.9l-2,17l14.1,9.9c0.6,0.4,0.8,1.2,0.4,1.8c-0.2,0.3-0.5,0.6-0.9,0.7
		l-16.9,3.3l-5.1,16.4c-0.2,0.7-1,1.1-1.7,0.9c0,0,0,0,0,0c-0.1,0-0.2-0.1-0.3-0.1c-0.2-0.1-0.4-0.3-0.5-0.6l-8.4-14.9l-17.2,0.3
		c-0.2,0-0.5-0.1-0.7-0.2c-0.4-0.2-0.7-0.7-0.7-1.2c0-0.2,0.1-0.5,0.2-0.7c0.1-0.1,0.1-0.2,0.2-0.3l11.7-12.6l-5.6-16.2
		c-0.1-0.4-0.1-0.8,0.1-1.1c0.2-0.3,0.4-0.5,0.7-0.6c0.4-0.1,0.7-0.1,1.1,0.1l15.5,7.2L345,88.6c0.4-0.3,1-0.4,1.5-0.1
		C347,88.8,347.3,89.3,347.3,89.9L347.3,89.9z M166.9,88.6l13.7,10.3l15.6-7.2c0.6-0.3,1.4-0.1,1.8,0.6c0.2,0.3,0.2,0.8,0.1,1.1
		l-5.6,16.3l11.7,12.6c0.5,0.6,0.5,1.4-0.1,1.9c-0.1,0.1-0.2,0.1-0.2,0.2c-0.2,0.1-0.5,0.2-0.8,0.2l-17.1-0.2l-8.4,15
		c-0.1,0.2-0.3,0.4-0.5,0.5c-0.4,0.2-0.9,0.2-1.4,0c-0.2-0.1-0.4-0.3-0.5-0.5c-0.1-0.1-0.1-0.2-0.1-0.3l-5.1-16.4l-16.8-3.3
		c-0.4-0.1-0.7-0.3-0.9-0.7c-0.2-0.3-0.2-0.6-0.2-0.9c0.1-0.4,0.3-0.7,0.6-0.9l14-9.8l-2.1-17.1c-0.1-0.6,0.2-1.1,0.7-1.3
		C165.9,88.2,166.5,88.3,166.9,88.6L166.9,88.6z"/>
	<path class="st1" d="M150.5,230.5v-62.2h32.2c6,0,10.2,1.1,12.8,3.5c2.6,2.3,3.8,5.7,3.8,10.1c0,4.4-0.8,7.9-2.4,10.3
		c-1.6,2.4-3.8,4-6.5,4.7v0.6c8,1.4,12,6.9,12,16.4c0,5-1.3,9-4,12c-2.6,3-6.7,4.5-12.2,4.5L150.5,230.5L150.5,230.5z M178.1,204.9
		h-7.8v11.8h7.7c2.8,0,4.2-2.5,4.2-5.9C182.2,207.4,180.8,204.9,178.1,204.9L178.1,204.9z M176.6,181.1h-6.3V192h6.2
		c2.5,0,3.8-2.4,3.8-5.4C180.3,183.5,179.1,181.1,176.6,181.1z M248.4,206.2h-19.9v10h24.4v14.3h-44.3v-62.2h43.8l-2.5,14.3h-21.4
		v10.8h19.9L248.4,206.2L248.4,206.2z M258.1,229.4l2.8-16.4c6.1,1.5,11.6,3.1,16.5,3.1s8.8-0.2,11.8-0.6v-6.6l-9-0.8
		c-8.1-0.7-13.7-1.9-16.7-5c-3-3.1-4.5-7.8-4.5-14c0-8.5,1.8-14.3,5.5-17.5c3.7-3.2,9.9-4.8,18.8-4.8s16.8,0.8,23.9,2.5l-2.5,13.4
		c-6.2-1-11.1-1.5-14.8-1.5c-3.7,0-6.9,0.2-9.5,0.5v9.8l7.2,0.7c8.7,0.9,14.7,0.5,18,3.7c3.3,3.3,5,7.9,5,13.7
		c0,4.2-0.6,7.7-1.7,10.6c-1.1,2.9-2.5,5.1-4,6.6s-3.8,2.6-6.6,3.4c-2.9,0.8-5.4,1.3-7.5,1.4c-2.1,0.2-5,0.2-8.6,0.2
		C273.5,232,265.5,231.1,258.1,229.4L258.1,229.4z M361.5,184.2h-14.4v46.3h-19.9v-46.3h-14.4v-15.9h48.8V184.2z M133.2,303.2
		l2.2-13.2c4.9,1.2,9.3,2.7,13.2,2.7c3.9,0,7.1-0.2,9.4-0.5v-6.5l-7.2-0.6c-6.5-0.6-10.9-0.5-13.4-3c-2.4-2.5-3.6-6.3-3.6-11.2
		c0-6.8,1.5-11.5,4.4-14c2.9-2.6,8-3.8,15-3.8c7.1,0,13.4,0.7,19.1,2l-2,11.9c-4.9-0.8-8.9-1.2-11.9-1.2c-3,0-5.5,0.1-7.6,0.4v6.4
		l5.7,0.6c7,0.7,11.8,0.7,14.4,3.3c2.6,2.6,4,6.3,4,11c0,3.4-0.4,6.2-1.4,8.5c-0.9,2.3-2,4.1-3.2,5.3c-1.2,1.2-3,2.1-5.3,2.8
		c-2.3,0.6-4.3,1-6,1.2c-1.7,0.1-4,0.2-6.9,0.2C145.5,305.3,139.1,304.6,133.2,303.2L133.2,303.2z M212.5,284.5h-15.9v8.5h19.5v11.1
		h-35.5v-49.8h35.1l-2,11.1h-17.1v9.2h15.9V284.5z M254.2,304.1h-31.9v-49.8h15.9v37.1h15.9V304.1z M289.9,304.1H258v-49.8h16v37.1
		h16L289.9,304.1L289.9,304.1z M325.5,284.5h-15.9v8.5h19.5v11.1h-35.5v-49.8h35.1l-2,11.1h-17.1v9.2h16L325.5,284.5L325.5,284.5z
		 M378.8,304.1h-17.5l-6.5-14.8h-3.4v14.8h-16v-49.8h25.1c11.4,0,17.1,5.8,17.1,17.5c0,8-2.5,13.2-7.4,15.8L378.8,304.1L378.8,304.1
		z M351.3,265.4v13.3h3.7c1.9,0,3.3-0.2,4.2-0.6c0.9-0.4,1.3-1.3,1.3-2.8v-6.6c0-1.4-0.5-2.4-1.3-2.8c-0.9-0.4-2.3-0.6-4.2-0.6
		L351.3,265.4L351.3,265.4z"/>
</g>
</svg>
