<?xml version="1.0" encoding="utf-8"?>
<!-- Generator: Adobe Illustrator 27.5.0, SVG Export Plug-In . SVG Version: 6.00 Build 0)  -->
<svg version="1.1" id="Layer_1" xmlns="http://www.w3.org/2000/svg" xmlns:xlink="http://www.w3.org/1999/xlink" x="0px" y="0px"
	 viewBox="0 0 75.2 79.7" style="enable-background:new 0 0 75.2 79.7;" xml:space="preserve">
<style type="text/css">
	.st0{fill:#767777;}
	.st1{opacity:0.518;fill:#F68428;enable-background:new    ;}
	.st2{fill:#FFFFFF;}
</style>
<path class="st0" d="M37.6,79.7c-1.6,0-3.3-0.3-4.8-0.9L13,70.6c-3.4-1.4-5.8-4.5-6.3-8.1L0.1,15.8c-0.4-2.5,1.1-5,3.4-5.9
	C11.1,6.9,29.8,0,37.6,0s26.5,6.9,34.1,9.9c2.4,0.9,3.8,3.4,3.4,5.9l-6.6,46.7c-0.5,3.6-2.9,6.7-6.3,8.1l0,0l-19.8,8.1
	C40.9,79.4,39.3,79.7,37.6,79.7z M37.6,3.5c-7.4,0-27,7.4-32.8,9.7c-0.8,0.3-1.4,1.2-1.2,2.1L10.2,62c0.3,2.4,1.9,4.4,4.2,5.4
	l19.8,8.1c2.2,0.9,4.7,0.9,6.9,0l19.8-8.1l0,0c2.2-0.9,3.8-3,4.2-5.4l6.6-46.7c0.1-0.9-0.4-1.8-1.2-2.1C64.6,10.9,45.1,3.5,37.6,3.5
	z"/>
<path class="st1" d="M37.6,70.5c-0.6,0-1.3-0.1-1.9-0.4L17,62.5c-0.9-0.4-1.6-1.2-1.7-2.2L9.2,17.5c13.3-5.1,24.3-8.4,28.4-8.4
	s15.1,3.3,28.4,8.4l-6.1,42.8c-0.1,1-0.8,1.8-1.7,2.2l-18.7,7.6C38.9,70.4,38.3,70.5,37.6,70.5z"/>
<g transform="translate(24.319 26.15)">
	<g transform="translate(8.808 0)">
		<rect x="1" y="1" class="st2" width="7" height="24.6"/>
		<path class="st2" d="M8,26.6H1c-0.6,0-1-0.5-1-1V1c0-0.6,0.5-1,1-1c0,0,0,0,0,0h7c0.6,0,1,0.5,1,1c0,0,0,0,0,0v24.6
			C9,26.1,8.5,26.6,8,26.6z M2,24.6H7V2H2V24.6z"/>
	</g>
	<g transform="translate(0 8.808)">
		<rect x="1" y="1" class="st2" width="24.6" height="7"/>
		<path class="st2" d="M25.6,9H1C0.5,9,0,8.5,0,8c0,0,0,0,0,0V1c0-0.6,0.5-1,1-1h24.6c0.6,0,1,0.5,1,1l0,0v7C26.6,8.5,26.1,9,25.6,9
			z M2,7h22.6V2H2V7z"/>
	</g>
</g>
</svg>
