<?xml version="1.0" encoding="utf-8"?>
<!-- Generator: Adobe Illustrator 26.0.0, SVG Export Plug-In . SVG Version: 6.00 Build 0)  -->
<svg version="1.1" id="Layer_1" xmlns="http://www.w3.org/2000/svg" xmlns:xlink="http://www.w3.org/1999/xlink" x="0px" y="0px"
	 viewBox="0 0 110 110" style="enable-background:new 0 0 110 110;" xml:space="preserve">
<style type="text/css">
	.st0{fill:#474747;stroke:#474747;stroke-width:2;stroke-miterlimit:10;}
</style>
<g>
	<path class="st0" d="M96.3,51.9c-0.8-0.5-1.7-0.8-2.5-0.8l0.7-1.1c0.7-1.1,0.9-2.4,0.7-3.5c-0.3-1.2-1-2.3-2.1-2.9l0,0
		c-0.8-0.5-1.8-0.8-2.7-0.8l0.5-0.9c0.7-1.1,0.9-2.4,0.7-3.5c-0.3-1.2-1-2.3-2.1-2.9c-1.1-0.7-2.4-0.9-3.5-0.7
		c-1.2,0.2-2.3,0.9-2.9,2.1l-0.5,0.9c-0.4-0.9-1-1.6-1.8-2.1c-1.1-0.7-2.4-0.9-3.5-0.7S75,35.8,74.3,37L62.2,55.6
		c-0.3,0.3-0.5,0.6-0.7,0.9l0,0l-0.7,1.1v-0.2c-0.3-1.1-0.4-2.2-0.5-2.5c-0.5-2.7-2.1-4.3-3.7-4.7c-0.8-0.2-1.6-0.2-2.3,0
		c-0.7,0.2-1.5,0.6-2.1,1.2c-1.4,1.3-2.2,3.6-1.4,6.7V58l0,0l0,0c0.6,3.1,0.9,10.4,2.8,15.5L42.9,86.2c-0.2,0.3-0.5,0.6-0.9,1
		c-2.4,2.6-3.9,4.4-2.1,8.8c0.7,1.7,2,3.2,3.3,4.7c2.7,2.8,6.5,5.2,10.2,6.6c3.7,1.5,7.5,2,10.1,0.9c0.6-0.3,1.2-0.6,1.6-1.1
		c0.1-0.1,0.2-0.2,0.3-0.4l9.3-20.2c2.9-1.9,6.3-2.9,8.1-5.9l4.8-7.3c0.2-0.3,0.4-0.5,0.4-0.8c0.1-0.1,0.2-0.2,0.2-0.3l0,0l9.3-14.1
		c0.7-1.1,0.9-2.4,0.7-3.5C98.1,53.6,97.5,52.5,96.3,51.9L96.3,51.9L96.3,51.9z M16.2,11.2c1,0,1.9,0.3,2.5,0.7v-1.3
		c0-1.3,0.5-2.5,1.3-3.3c0.8-0.8,2.1-1.4,3.2-1.4l0,0c1,0,1.9,0.3,2.6,0.8V5.6c0-1.3,0.5-2.5,1.3-3.3C28.1,1.4,29.4,1,30.7,1
		s2.5,0.5,3.3,1.3s1.4,2.1,1.4,3.2v1.1C36,6.1,37,5.8,38,5.8c1.3,0,2.5,0.5,3.3,1.3s1.4,2.1,1.4,3.2L43,32.4
		c0.1,0.4,0.1,0.8,0.1,1.2l0,0v1.3l0.1-0.1c0.8-0.8,1.6-1.6,1.9-1.9c2-2.1,4.1-2.5,5.8-2c0.8,0.3,1.4,0.7,2,1.3
		c0.5,0.5,0.9,1.3,1.2,2.1c0.4,1.9-0.1,4.2-2.5,6.3l0,0l0,0l0,0c-2.3,2.4-6.3,8.2-10.7,11.4l2.1,16.8c0,0.3,0.1,0.8,0.2,1.3
		c0.5,3.5,1,5.9-3,8.5c-1.5,1-3.3,1.7-5.4,2.2c-3.7,0.9-8.2,0.8-12.2,0c-4-0.8-7.4-2.5-8.9-4.7c-0.4-0.5-0.6-1.1-0.8-1.7
		c-0.1,0-0.1-0.2-0.1-0.4l3-22.1c-1.7-2.8-3.7-5.8-3.8-9.2l-0.1-8.7c0-0.3,0-0.6,0-0.9c0-0.1-0.1-0.2-0.1-0.4l0,0l-0.1-17
		c0-1.3,0.5-2.5,1.3-3.3C13.9,11.7,15,11.2,16.2,11.2L16.2,11.2L16.2,11.2z M38.4,51.8c4-3.4,10.1-10.8,11.6-12.4l0.1-0.1l0.7,0.8
		l-0.7-0.9c1.7-1.5,2.1-3.1,1.9-4.3c-0.1-0.4-0.4-0.8-0.6-1.2c-0.3-0.3-0.6-0.5-1.1-0.6c-1.1-0.3-2.4,0-3.7,1.4
		c-0.3,0.3-1.2,1.2-2,2c-0.7,0.7-1.5,1.4-2.1,1.7c-0.2,0.1-0.4,0.2-0.6,0.2l0,0L41,37.9l-0.3-4.1c-0.1-7.8-0.3-15.5-0.4-23.2
		c0-0.7-0.3-1.3-0.8-1.8c-0.4-0.4-1.2-0.7-1.8-0.7c-0.7,0-1.3,0.3-1.8,0.8c-0.3,0.4-0.6,1.1-0.6,1.8l0.2,15.2h-2.2L33.3,5.6
		c0-0.7-0.3-1.3-0.8-1.7s-1.2-0.7-1.8-0.7c-0.6,0-1.3,0.3-1.8,0.8c-0.4,0.4-0.7,1.2-0.7,1.9l0.3,20h-2.2l-0.3-15.3
		c0-0.7-0.3-1.3-0.8-1.8c-0.4-0.4-1.2-0.7-1.8-0.7s-1.3,0.3-1.8,0.8c-0.4,0.4-0.7,1.2-0.7,1.9L21.3,26h-2.1l-0.4-10.3
		c0-0.7-0.3-1.3-0.8-1.8c-0.5-0.4-1.1-0.7-1.8-0.7c-0.7,0-1.3,0.3-1.8,0.8c-0.4,0.4-0.7,1.2-0.7,1.8L14,25.9v1.6l0.1,6.3
		c0,0.1,0,0.2,0,0.2l0.1,8.7c0,2.4,2.5,6.5,3.5,8.8c0.1,0.3,0.2,0.4,0.1,0.6l0,0l-3.1,22.2c0.1,0.4,0.3,0.6,0.4,0.9
		c1.3,1.9,4.1,3.1,7.6,3.8c3.6,0.7,7.8,0.8,11.3,0c1.9-0.4,3.4-1.1,4.7-1.9c2.9-2,2.6-3.7,2.2-6.5c-0.1-0.4-0.1-0.7-0.2-1.3
		L38.4,51.8L38.4,51.8z M14,28.6L14,28.6L14,28.6L14,28.6L14,28.6L14,28.6z M55.9,74c-1.6-5.1-2.6-14.6-2.9-16.7c0-0.1,0-0.1,0-0.2
		l-1.1,0.3l1.1-0.3c-0.6-2.2-0.1-3.7,0.8-4.6c0.4-0.3,0.7-0.5,1.2-0.6c0.4-0.1,0.8-0.1,1.3,0c1.1,0.3,2,1.3,2.4,3.1
		c0.1,0.4,0.4,1.6,0.6,2.6c0.3,1,0.5,2.1,0.8,2.5c0.1,0.2,0.2,0.4,0.4,0.4l0,0l0.9,0.1l2.5-3.3c4.2-6.4,8.4-12.8,12.7-19.3
		c0.4-0.6,1-1,1.6-1.1c0.6-0.2,1.3,0,2,0.4c0.7,0.4,1,1,1.1,1.6c0.2,0.6,0,1.3-0.4,2l-8.3,12.6l1.9,1.3l11.1-16.7
		c0.4-0.6,1-1,1.6-1.1c0.6-0.2,1.3,0,2,0.4c0.6,0.4,1,1,1.1,1.6c0.2,0.6,0,1.3-0.4,2L78.5,57.7l1.9,1.3l8.4-12.7
		c0.4-0.6,1-1,1.6-1.1c0.6-0.2,1.3,0,2,0.4c0.6,0.4,1,1,1.1,1.6c0.2,0.6,0,1.3-0.4,2l-8.4,12.7l1.8,1.2l5.5-8.4c0.4-0.6,1-1,1.6-1.1
		c0.6-0.2,1.3,0,2,0.4c0.7,0.4,1,1,1.1,1.6c0.2,0.6,0,1.3-0.4,2l-5.7,8.1l-0.9,1.3l-3.5,5.3c0,0.1-0.1,0.1-0.1,0.2L81,79.6
		c-1.3,2-5.6,4.1-7.7,5.5c-0.2,0.1-0.3,0.3-0.4,0.4l0,0l-9.3,20.4c-0.3,0.2-0.5,0.4-0.9,0.5c-2.1,0.9-5.2,0.4-8.5-0.9
		c-3.4-1.3-7-3.6-9.5-6.2c-1.3-1.3-2.4-2.7-2.9-4.1c-1.4-3.2-0.2-4.6,1.7-6.7c0.3-0.3,0.5-0.5,0.9-1.1L55.9,74L55.9,74z M88.9,67.7
		L88.9,67.7L88.9,67.7L88.9,67.7L88.9,67.7L88.9,67.7z"/>
</g>
</svg>
