<?xml version="1.0" encoding="utf-8"?>
<!-- Generator: Adobe Illustrator 26.0.0, SVG Export Plug-In . SVG Version: 6.00 Build 0)  -->
<svg version="1.1" id="Layer_1" xmlns="http://www.w3.org/2000/svg" xmlns:xlink="http://www.w3.org/1999/xlink" x="0px" y="0px"
	 viewBox="0 0 110 110" style="enable-background:new 0 0 110 110;" xml:space="preserve">
<style type="text/css">
	.st0{fill:#474747;}
</style>
<g>
	<path class="st0" d="M97.1,51.9c-0.8-0.5-1.7-0.8-2.6-0.8l0.7-1.1c0.7-1.1,0.9-2.4,0.7-3.6c-0.3-1.2-1-2.3-2.1-3l0,0
		c-0.8-0.5-1.8-0.8-2.8-0.8l0.5-0.9c0.7-1.1,0.9-2.4,0.7-3.6c-0.3-1.2-1-2.3-2.1-3c-1.1-0.7-2.4-0.9-3.6-0.7c-1.2,0.2-2.3,0.9-3,2.1
		l-0.5,0.9c-0.4-0.9-1-1.6-1.8-2.1c-1.1-0.7-2.4-0.9-3.6-0.7c-1.2,0.2-2.3,0.9-3,2.1l-12.3,19c-0.3,0.3-0.5,0.6-0.7,0.9l0,0
		l-0.7,1.1v-0.2c-0.3-1.1-0.4-2.2-0.5-2.6c-0.5-2.8-2.1-4.4-3.8-4.8c-0.8-0.2-1.6-0.2-2.3,0c-0.7,0.2-1.5,0.6-2.1,1.2
		c-1.4,1.3-2.2,3.7-1.4,6.8v0.1l0,0l0,0c0.6,3.2,0.9,10.6,2.9,15.8L42.6,86.9c-0.2,0.3-0.5,0.6-0.9,1c-2.4,2.7-4,4.5-2.1,9
		c0.7,1.7,2,3.3,3.4,4.8c2.8,2.9,6.6,5.3,10.4,6.7c3.8,1.5,7.7,2,10.3,0.9c0.6-0.3,1.2-0.6,1.6-1.1c0.1-0.1,0.2-0.2,0.3-0.4
		l9.5-20.6c3-1.9,6.4-3,8.3-6l4.9-7.4c0.2-0.3,0.4-0.5,0.4-0.8c0.1-0.1,0.2-0.2,0.2-0.3l0,0l9.5-14.4c0.7-1.1,0.9-2.4,0.7-3.6
		C98.9,53.7,98.3,52.6,97.1,51.9L97.1,51.9L97.1,51.9z M15.4,10.4c1,0,1.9,0.3,2.6,0.7V9.8c0-1.3,0.5-2.5,1.3-3.4
		C20.1,5.6,21.4,5,22.6,5l0,0c1,0,1.9,0.3,2.7,0.8V4.7c0-1.3,0.5-2.5,1.3-3.4C27.5,0.4,28.8,0,30.1,0s2.5,0.5,3.4,1.3
		c0.9,0.8,1.4,2.1,1.4,3.3v1.1c0.7-0.5,1.7-0.8,2.7-0.8c1.3,0,2.5,0.5,3.4,1.3s1.4,2.1,1.4,3.3l0.3,22.6c0.1,0.4,0.1,0.8,0.1,1.2
		l0,0v1.3l0.1-0.1c0.8-0.8,1.6-1.6,1.9-1.9c2-2.1,4.2-2.5,5.9-2c0.8,0.3,1.4,0.7,2,1.3c0.5,0.5,0.9,1.3,1.2,2.1
		c0.4,1.9-0.1,4.3-2.5,6.4l0,0l0,0l0,0c-2.3,2.4-6.4,8.4-10.9,11.6l2.1,17.1c0,0.3,0.1,0.8,0.2,1.3c0.5,3.6,1,6-3.1,8.7
		c-1.5,1-3.4,1.7-5.5,2.2c-3.8,0.9-8.4,0.8-12.4,0c-4.1-0.8-7.5-2.5-9.1-4.8c-0.4-0.5-0.6-1.1-0.8-1.7c-0.1,0-0.1-0.2-0.1-0.4
		l3.1-22.5C13.2,49,11.1,46,11,42.5l-0.1-8.9c0-0.3,0-0.6,0-0.9c0-0.1-0.1-0.2-0.1-0.4l0,0l-0.1-17.3c0-1.3,0.5-2.5,1.3-3.4
		C13,10.9,14.1,10.4,15.4,10.4L15.4,10.4L15.4,10.4z M38,51.8c4.1-3.5,10.3-11,11.8-12.6l0.1-0.1l0.7,0.8L49.9,39
		c1.7-1.5,2.1-3.2,1.9-4.4c-0.1-0.4-0.4-0.8-0.6-1.2c-0.3-0.3-0.6-0.5-1.1-0.6c-1.1-0.3-2.4,0-3.8,1.4c-0.3,0.3-1.2,1.2-2,2
		c-0.7,0.7-1.5,1.4-2.1,1.7c-0.2,0.1-0.4,0.2-0.6,0.2l0,0l-0.9-0.4l-0.3-4.2c-0.1-8-0.3-15.8-0.4-23.7c0-0.7-0.3-1.3-0.8-1.8
		c-0.4-0.4-1.2-0.7-1.8-0.7c-0.7,0-1.3,0.3-1.8,0.8C35.3,8.5,35,9.2,35,9.9l0.2,15.5h-2.2L32.8,4.7C32.8,4,32.5,3.4,32,3
		c-0.5-0.4-1.2-0.7-1.8-0.7c-0.6,0-1.3,0.3-1.8,0.8c-0.4,0.4-0.7,1.2-0.7,1.9l0.3,20.4h-2.2L25.5,9.8c0-0.7-0.3-1.3-0.8-1.8
		c-0.4-0.4-1.2-0.7-1.8-0.7s-1.3,0.3-1.8,0.8c-0.4,0.4-0.7,1.2-0.7,1.9l0.2,15.5h-2.1L18.1,15c0-0.7-0.3-1.3-0.8-1.8
		c-0.5-0.4-1.1-0.7-1.8-0.7c-0.7,0-1.3,0.3-1.8,0.8c-0.4,0.4-0.7,1.2-0.7,1.8l0.1,10.3V27l0.1,6.4c0,0.1,0,0.2,0,0.2l0.1,8.9
		c0,2.4,2.5,6.6,3.6,9c0.1,0.3,0.2,0.4,0.1,0.6l0,0l-3.2,22.6c0.1,0.4,0.3,0.6,0.4,0.9c1.3,1.9,4.2,3.2,7.8,3.9
		c3.7,0.7,8,0.8,11.5,0c1.9-0.4,3.5-1.1,4.8-1.9c3-2,2.7-3.8,2.2-6.6c-0.1-0.4-0.1-0.7-0.2-1.3L38,51.8L38,51.8z M13.1,28.2
		L13.1,28.2L13.1,28.2L13.1,28.2L13.1,28.2L13.1,28.2z M55.9,74.5c-1.6-5.2-2.7-14.9-3-17c0-0.1,0-0.1,0-0.2l-1.1,0.3l1.1-0.3
		c-0.6-2.2-0.1-3.8,0.8-4.7c0.4-0.3,0.7-0.5,1.2-0.6c0.4-0.1,0.8-0.1,1.3,0c1.1,0.3,2,1.3,2.4,3.2c0.1,0.4,0.4,1.6,0.6,2.7
		c0.3,1,0.5,2.1,0.8,2.6c0.1,0.2,0.2,0.4,0.4,0.4l0,0l0.9,0.1l2.6-3.4c4.3-6.5,8.6-13.1,13-19.7c0.4-0.6,1-1,1.6-1.1
		c0.6-0.2,1.3,0,2,0.4s1,1,1.1,1.6c0.2,0.6,0,1.3-0.4,2l-8.5,12.9l1.9,1.3l11.3-17c0.4-0.6,1-1,1.6-1.1c0.6-0.2,1.3,0,2,0.4
		c0.6,0.4,1,1,1.1,1.6c0.2,0.6,0,1.3-0.4,2l-11.3,17l1.9,1.3l8.6-13c0.4-0.6,1-1,1.6-1.1c0.6-0.2,1.3,0,2,0.4c0.6,0.4,1,1,1.1,1.6
		c0.2,0.6,0,1.3-0.4,2l-8.6,13l1.8,1.2l5.6-8.6c0.4-0.6,1-1,1.6-1.1c0.6-0.2,1.3,0,2,0.4s1,1,1.1,1.6c0.2,0.6,0,1.3-0.4,2L91,65.9
		l-0.9,1.3l-3.6,5.4c0,0.1-0.1,0.1-0.1,0.2l-4.9,7.4c-1.3,2-5.7,4.2-7.9,5.6c-0.2,0.1-0.3,0.3-0.4,0.4l0,0L63.7,107
		c-0.3,0.2-0.5,0.4-0.9,0.5c-2.1,0.9-5.3,0.4-8.7-0.9c-3.5-1.3-7.1-3.7-9.7-6.3c-1.3-1.3-2.4-2.8-3-4.2c-1.4-3.3-0.2-4.7,1.7-6.8
		c0.3-0.3,0.5-0.5,0.9-1.1L55.9,74.5L55.9,74.5z M89.5,68.1L89.5,68.1L89.5,68.1L89.5,68.1L89.5,68.1L89.5,68.1z"/>
</g>
</svg>
