<svg xmlns="http://www.w3.org/2000/svg" width="98.737" height="81.653" viewBox="0 0 98.737 81.653"><defs><style>.a{fill:#767777;}.b{fill:#fabf8f;}</style></defs><path class="a" d="M2528.531,3415.441a14.209,14.209,0,1,1,14.208-14.208A14.225,14.225,0,0,1,2528.531,3415.441Zm0-24.23a10.022,10.022,0,1,0,10.022,10.022A10.033,10.033,0,0,0,2528.531,3391.211Z" transform="translate(-2479.162 -3386.923)"/><path class="a" d="M2408.157,3468.172a2.093,2.093,0,0,1-2.092-2.044l-.85-36.558a2.088,2.088,0,0,1,.5-1.411l26.468-30.88a3.99,3.99,0,0,0-.57-5.737,4,4,0,0,0-5.552.625,206.679,206.679,0,0,1-16.464,18.466c-8.793,8.375-14.553,8.308-20.124,8.241-1-.011-2.025-.011-3.021,0-5.572.066-11.332.134-20.125-8.241a206.794,206.794,0,0,1-16.464-18.466,4,4,0,0,0-5.551-.625,3.99,3.99,0,0,0-.57,5.737l26.468,30.88a2.088,2.088,0,0,1,.5,1.411l-.85,36.558a2.092,2.092,0,0,1-2.091,2.044h-.05a2.092,2.092,0,0,1-2.044-2.141l.831-35.756L2340.567,3400a8.174,8.174,0,0,1,1.168-11.757,8.2,8.2,0,0,1,11.392,1.294,202.89,202.89,0,0,0,16.09,18.061c7.56,7.2,11.808,7.149,17.188,7.086,1.029-.012,2.091-.012,3.12,0,5.379.062,9.629.114,17.188-7.086a202.7,202.7,0,0,0,16.09-18.061,8.2,8.2,0,0,1,11.392-1.294,8.174,8.174,0,0,1,1.169,11.757l-25.946,30.271.832,35.756a2.092,2.092,0,0,1-2.044,2.141Z" transform="translate(-2338.598 -3386.519)"/><path class="a" d="M2537.859,3545.762a2.086,2.086,0,0,1-1.326-.474c-2.762-2.262-9.249-12.433-10.518-19.851a2.093,2.093,0,1,1,4.126-.707c.91,5.318,5.156,12.6,7.719,15.863,2.561-3.266,6.808-10.545,7.718-15.863a2.093,2.093,0,0,1,4.126.707c-1.27,7.417-7.756,17.588-10.519,19.851A2.084,2.084,0,0,1,2537.859,3545.762Z" transform="translate(-2488.491 -3495.685)"/><g transform="translate(40.536 39.683)"><ellipse class="b" cx="6.739" cy="6.739" rx="6.739" ry="6.739" transform="translate(2.093 2.093)"/><path class="a" d="M2550.023,3602.513a8.832,8.832,0,1,1,8.832-8.833A8.842,8.842,0,0,1,2550.023,3602.513Zm0-13.478a4.646,4.646,0,1,0,4.646,4.645A4.651,4.651,0,0,0,2550.023,3589.035Z" transform="translate(-2541.191 -3584.849)"/></g></svg>