<svg xmlns="http://www.w3.org/2000/svg" width="100.057" height="68.568" viewBox="0 0 100.057 68.568"><defs><style>.a{fill:#767777;}.b{fill:#90d3ab;}.c{fill:#fff;}</style></defs><g transform="translate(15.34)"><path class="a" d="M2480.737,3461.219a3.91,3.91,0,0,1-1.022-.137l-66.579-17.989a3.927,3.927,0,0,1-2.762-4.809l10.294-38.1a3.927,3.927,0,0,1,4.808-2.762l66.578,17.989a3.922,3.922,0,0,1,2.762,4.808l-10.294,38.1A3.929,3.929,0,0,1,2480.737,3461.219Zm-56.285-60-10.285,38.095,66.573,17.98h0l10.284-38.1Z" transform="translate(-2410.238 -3397.285)"/><path class="b" d="M2477.959,3456.471l53.03,14.328a1.38,1.38,0,0,1,.972,1.691l-6.66,24.648a1.379,1.379,0,0,1-1.691.972l-53.031-14.328a1.38,1.38,0,0,1-.972-1.692l6.66-24.648A1.379,1.379,0,0,1,2477.959,3456.471Z" transform="translate(-2458.427 -3445.324)"/></g><g transform="translate(0 21.259)"><g transform="translate(0 0)"><rect class="c" width="72.879" height="43.38" rx="10.425" transform="translate(1.965 1.965)"/><path class="a" d="M2401.391,3557.867h-68.966a3.927,3.927,0,0,1-3.922-3.922v-39.467a3.926,3.926,0,0,1,3.922-3.92h68.966a3.925,3.925,0,0,1,3.921,3.92v39.467A3.926,3.926,0,0,1,2401.391,3557.867Zm-.008-43.389-68.957.009.007,39.458,68.96-.007Z" transform="translate(-2328.504 -3510.557)"/></g><rect class="b" width="57.69" height="28.29" rx="9.041" transform="translate(9.559 9.51)"/><g transform="translate(33.577 15.192)"><path class="c" d="M2511.424,3606.194a4.025,4.025,0,0,0,1.118.922,3.538,3.538,0,0,0,1.5.489v-4.3q-3.423-.864-3.348-3.855.056-3.458,3.348-3.939v-1.354h.987v1.354a4.883,4.883,0,0,1,3.252,1.288l-1.118,1.457a3.647,3.647,0,0,0-2.135-.9v4.1q3.563.856,3.516,3.968a3.965,3.965,0,0,1-.959,2.68,4.022,4.022,0,0,1-2.557,1.344v2.078h-.987v-2.078a4.98,4.98,0,0,1-2.135-.517,7.32,7.32,0,0,1-1.833-1.307Zm2.614-8.838a1.49,1.49,0,0,0-.96.564,2.057,2.057,0,0,0-.291.611,2.619,2.619,0,0,0-.131.884,1.867,1.867,0,0,0,.31,1.1,1.944,1.944,0,0,0,1.073.715Zm.987,10.249a1.939,1.939,0,0,0,1.231-.809,2.718,2.718,0,0,0,.329-1.392,2.206,2.206,0,0,0-.31-1.175,1.875,1.875,0,0,0-1.25-.687Z" transform="translate(-2509.571 -3593.661)"/><path class="c" d="M2512.865,3609.865h-.987a.5.5,0,0,1-.5-.5v-1.609a5.5,5.5,0,0,1-1.855-.539,7.839,7.839,0,0,1-1.963-1.4.5.5,0,0,1-.013-.7l1.354-1.43a.5.5,0,0,1,.743.02,3.579,3.579,0,0,0,.982.81l.023.013a2.635,2.635,0,0,0,.73.311v-3.317c-1.645-.5-3.413-1.646-3.347-4.246.039-2.384,1.194-3.879,3.347-4.345V3592a.5.5,0,0,1,.5-.5h.987a.5.5,0,0,1,.5.5v.881a5.444,5.444,0,0,1,3.083,1.385.5.5,0,0,1,.067.678l-1.119,1.458a.5.5,0,0,1-.72.075,3.187,3.187,0,0,0-1.311-.7v3.13c1.709.5,3.557,1.66,3.516,4.359a4.466,4.466,0,0,1-1.084,3,4.408,4.408,0,0,1-2.432,1.428v1.665A.5.5,0,0,1,2512.865,3609.865Zm-4.242-4.427a6.87,6.87,0,0,0,1.345.889,4.488,4.488,0,0,0,1.918.463.453.453,0,0,0,.9.005,3.509,3.509,0,0,0,2.253-1.176,3.458,3.458,0,0,0,.838-2.36c.028-1.828-1-2.963-3.134-3.477a.5.5,0,0,1-.382-.485v-.124a.5.5,0,0,1-.645.372,2.433,2.433,0,0,1-1.333-.917,2.343,2.343,0,0,1-.392-1.372,3.146,3.146,0,0,1,.157-1.042,2.546,2.546,0,0,1,.362-.748l.018-.023a1.979,1.979,0,0,1,1.277-.741.368.368,0,1,0,.715.129.509.509,0,0,1,.378-.132,4.094,4.094,0,0,1,2,.7l.519-.678a4.271,4.271,0,0,0-2.566-.871.456.456,0,0,0-.909-.005c-1.959.285-2.887,1.382-2.921,3.454-.044,1.749.928,2.847,2.97,3.364a.5.5,0,0,1,.377.483v.133a.493.493,0,0,1,.172-.284.5.5,0,0,1,.415-.1,2.344,2.344,0,0,1,1.567.9,2.714,2.714,0,0,1,.392,1.45,3.22,3.22,0,0,1-.4,1.643,2.428,2.428,0,0,1-1.534,1.04.5.5,0,0,1-.433-.087.494.494,0,0,1-.189-.323.5.5,0,0,1-.551.423,4.054,4.054,0,0,1-1.693-.556,4.508,4.508,0,0,1-.861-.627Zm4.741-3.37v2.625a1.05,1.05,0,0,0,.307-.315,2.256,2.256,0,0,0,.256-1.133,1.707,1.707,0,0,0-.237-.915A.842.842,0,0,0,2513.364,3602.068Zm-2.051-6a1.619,1.619,0,0,0-.209.452l-.007.022a2.134,2.134,0,0,0-.1.715,1.368,1.368,0,0,0,.22.813.86.86,0,0,0,.165.187v-2.261C2511.357,3596.017,2511.335,3596.042,2511.313,3596.068Z" transform="translate(-2507.411 -3591.502)"/></g></g></svg>