<?xml version="1.0" encoding="utf-8"?>
<!-- Generator: Adobe Illustrator 26.0.0, SVG Export Plug-In . SVG Version: 6.00 Build 0)  -->
<svg version="1.1" id="Layer_1" xmlns="http://www.w3.org/2000/svg" xmlns:xlink="http://www.w3.org/1999/xlink" x="0px" y="0px"
	 viewBox="0 0 110 110" style="enable-background:new 0 0 110 110;" xml:space="preserve">
<style type="text/css">
	.st0{fill:#474747;}
</style>
<g>
	<path class="st0" d="M14.3,87.6c-4.5,6-8.4,11-10.5,16.8c-2.1,5.6-2.9,8.2,1.8,2.3C10,101.3,14,96,19.9,91.1
		c0.4,0.1,0.9,0.2,1.3,0.3C74.8,102,113.9,77.9,107,0C65.7,14.3,7.3,8.5,13.4,81.7C13.6,84.4,13.8,86.3,14.3,87.6L14.3,87.6
		L14.3,87.6z M27,77.1c14-30.2,50-40.5,67.8-61.1C75.5,53.6,59.7,55.5,27,77.1L27,77.1z"/>
</g>
</svg>
