<svg xmlns="http://www.w3.org/2000/svg" width="75.234" height="79.675" viewBox="0 0 75.234 79.675"><defs><style>.a{fill:#767777;}.b{fill:#f68428;opacity:0.518;}.c{fill:#fff;}</style></defs><path class="a" d="M663.736,3434.191a12.633,12.633,0,0,1-4.786-.946l-19.781-8.084a10.407,10.407,0,0,1-6.345-8.14l-6.648-46.736a5.455,5.455,0,0,1,3.438-5.875c7.65-2.976,26.289-9.895,34.123-9.895s26.474,6.919,34.124,9.895a5.455,5.455,0,0,1,3.438,5.875l-6.649,46.736a10.406,10.406,0,0,1-6.345,8.14h0l-19.781,8.084A12.632,12.632,0,0,1,663.736,3434.191Zm0-76.145c-7.44,0-27.02,7.39-32.844,9.655a1.937,1.937,0,0,0-1.221,2.086l6.649,46.735a6.865,6.865,0,0,0,4.184,5.369l19.781,8.083a9.076,9.076,0,0,0,6.9,0l19.781-8.083h0a6.865,6.865,0,0,0,4.184-5.369l6.649-46.735a1.937,1.937,0,0,0-1.221-2.086C690.756,3365.437,671.176,3358.046,663.736,3358.046Z" transform="translate(-626.12 -3354.516)"/><path class="b" d="M709.184,3470.129a4.923,4.923,0,0,1-1.874-.369l-18.72-7.65a2.8,2.8,0,0,1-1.709-2.193l-6.086-42.781c13.28-5.1,24.336-8.362,28.389-8.362s15.109,3.263,28.389,8.362l-6.086,42.781a2.8,2.8,0,0,1-1.709,2.193l-18.72,7.65A4.919,4.919,0,0,1,709.184,3470.129Z" transform="translate(-671.567 -3399.617)"/><g transform="translate(24.319 26.15)"><g transform="translate(8.808 0)"><rect class="c" width="6.963" height="24.579" transform="translate(1.008 1.008)"/><path class="c" d="M830.365,3536.051H823.4a1.009,1.009,0,0,1-1.008-1.009v-24.579a1.008,1.008,0,0,1,1.008-1.009h6.963a1.008,1.008,0,0,1,1.009,1.009v24.579A1.009,1.009,0,0,1,830.365,3536.051Zm-5.954-2.017h4.946v-22.562h-4.946Z" transform="translate(-822.394 -3509.454)"/></g><g transform="translate(0 8.808)"><rect class="c" width="24.579" height="6.963" transform="translate(1.008 1.008)"/><path class="c" d="M795.794,3570.622H771.214a1.008,1.008,0,0,1-1.009-1.008v-6.963a1.009,1.009,0,0,1,1.009-1.008h24.579a1.008,1.008,0,0,1,1.008,1.008v6.963A1.008,1.008,0,0,1,795.794,3570.622Zm-23.571-2.016h22.562v-4.947H772.223Z" transform="translate(-770.206 -3561.642)"/></g></g></svg>