<?xml version="1.0" encoding="utf-8"?>
<!-- Generator: Adobe Illustrator 26.0.0, SVG Export Plug-In . SVG Version: 6.00 Build 0)  -->
<svg version="1.1" id="Layer_1" xmlns="http://www.w3.org/2000/svg" xmlns:xlink="http://www.w3.org/1999/xlink" x="0px" y="0px"
	 viewBox="0 0 110 110" style="enable-background:new 0 0 110 110;" xml:space="preserve">
<style type="text/css">
	.st0{fill:#474747;}
</style>
<g>
	<path class="st0" d="M60,85.2h18.2c1.5-1.5,3.1-3,4.7-4.5c3.4-3.2,7-6.6,10.6-10.8c4.2-4.8,4.6-6.5,5.9-11.2
		c0.2-0.9,0.5-1.9,0.9-3.1l2.2-7.6l0-0.1c1.2-3.4,1.3-5.7,0.8-6.9c-0.2-0.4-0.3-0.7-0.6-0.8c-0.2-0.1-0.4-0.2-0.6-0.1
		c-0.6,0.1-1.2,0.4-1.8,1.1l-6.5,15.4c-0.1,0.1-0.1,0.3-0.2,0.4c-0.4,0.7-0.9,1.4-1.6,2L80.5,71.6c-0.6,0.7-1.7,0.8-2.4,0.1
		c-0.7-0.6-0.8-1.7-0.1-2.4l11.5-12.8c0.1-0.1,0.1-0.1,0.2-0.2c1.2-1.1,1.6-2.4,1.3-3.2c-0.1-0.3-0.2-0.5-0.3-0.7
		c-0.2-0.1-0.4-0.2-0.6-0.3l0,0c-1-0.1-2.5,0.6-4.4,2.8l0,0c-0.1,0.1-0.1,0.1-0.2,0.2L81,59.1l0,0c-4.8,4.5-6.9,5.6-10.6,7.6
		c-0.8,0.4-1.7,0.9-2.7,1.4c-0.4,0.2-0.8,0.5-1.2,0.8c-0.4,0.3-0.8,0.7-1.2,1c-2,1.7-3,3-3.6,4.5c-0.6,1.6-0.8,3.5-1.2,6.1
		c-0.1,1.1-0.2,2.1-0.3,3.1C60,84.2,60,84.7,60,85.2L60,85.2L60,85.2z M50,85.2H31.9c-1.5-1.5-3.1-3-4.7-4.5
		c-3.4-3.2-7-6.6-10.6-10.8c-4.2-4.8-4.6-6.5-5.9-11.2c-0.2-0.9-0.5-1.9-0.8-3.1l-2.2-7.6l0-0.1c-1.2-3.4-1.3-5.7-0.8-6.9
		c0.2-0.4,0.3-0.7,0.6-0.8C7.5,40,7.8,39.9,8,40c0.6,0.1,1.2,0.4,1.8,1l6.5,15.4c0.1,0.1,0.1,0.3,0.2,0.4c0.4,0.7,0.9,1.4,1.6,2
		l11.5,12.8c0.6,0.7,1.7,0.8,2.4,0.1c0.7-0.6,0.8-1.7,0.1-2.4L20.6,56.5c-0.1-0.1-0.1-0.1-0.2-0.2c-1.2-1.1-1.6-2.4-1.3-3.2
		c0.1-0.3,0.2-0.5,0.3-0.7c0.2-0.1,0.4-0.2,0.6-0.3l0,0c1-0.1,2.5,0.6,4.4,2.8l0,0c0.1,0.1,0.1,0.1,0.2,0.2l4.4,3.9l0,0
		c4.8,4.5,6.9,5.6,10.6,7.6c0.8,0.4,1.7,0.9,2.7,1.4c0.4,0.2,0.8,0.5,1.2,0.8c0.4,0.3,0.8,0.7,1.2,1c2,1.7,3,3,3.6,4.5
		c0.6,1.6,0.8,3.5,1.2,6.1c0.1,1.1,0.2,2.1,0.3,3.1C50,84.2,50,84.7,50,85.2L50,85.2L50,85.2z M27.6,85.8c-0.3,0.3-0.4,0.7-0.4,1.1
		V97c0,0.9,0.8,1.7,1.7,1.7h22.9c0.9,0,1.7-0.8,1.7-1.7c0-4.4,0.2-9.1-0.1-13.5c-0.1-1.1-0.2-2.2-0.3-3.3c-0.3-2.9-0.6-4.9-1.4-6.9
		c-0.8-2-2.1-3.8-4.6-5.9c-0.4-0.4-0.9-0.8-1.4-1.1c-0.5-0.4-1.1-0.8-1.7-1.1c-1-0.5-1.9-1-2.8-1.5c-3.5-1.8-5.4-2.8-9.9-7.1
		c0,0-0.1-0.1-0.1-0.1l-4.3-3.8c-2.6-3.1-5.2-4.1-7.2-3.9h0l0,0c-1,0.1-1.8,0.5-2.5,1.1l-4.4-10.4h0c-0.1-0.2-0.2-0.3-0.3-0.4
		c-1.2-1.5-2.7-2.3-4.2-2.4c-1-0.1-2,0.1-2.8,0.7c-0.8,0.5-1.5,1.3-1.9,2.5c-0.7,1.9-0.7,5,0.7,9.2l2.2,7.6c0.3,1.1,0.6,2.2,0.8,3.1
		c1.4,5.3,1.9,7.1,6.6,12.6c3.7,4.3,7.4,7.7,10.9,11.1C25.8,84.1,26.7,84.9,27.6,85.8L27.6,85.8L27.6,85.8z M50.1,88.6v6.7H30.6
		v-6.7C37.1,88.6,43.6,88.6,50.1,88.6L50.1,88.6z M82.4,85.8c0.3,0.3,0.4,0.7,0.4,1.1V97c0,0.9-0.8,1.7-1.7,1.7H58.2
		c-0.9,0-1.7-0.8-1.7-1.7c0-4.5-0.2-9,0.1-13.5c0.1-1.1,0.2-2.2,0.3-3.3c0.3-2.9,0.6-4.9,1.4-6.9c0.8-2,2.1-3.8,4.6-5.9
		c0.4-0.4,0.9-0.8,1.4-1.1c0.5-0.4,1.1-0.8,1.7-1.1c1-0.5,1.9-1,2.8-1.5c3.5-1.8,5.4-2.8,9.9-7.1c0,0,0.1-0.1,0.1-0.1l4.3-3.8
		c2.6-3.1,5.2-4.1,7.2-3.9h0l0,0c1,0.1,1.8,0.5,2.5,1.1l4.4-10.4h0c0.1-0.2,0.2-0.3,0.3-0.4c1.2-1.5,2.7-2.3,4.2-2.4
		c1-0.1,2,0.1,2.8,0.7c0.8,0.5,1.5,1.3,1.9,2.5c0.7,1.9,0.7,5-0.7,9.2l-2.2,7.6c-0.3,1.1-0.6,2.2-0.8,3.1c-1.4,5.3-1.9,7.1-6.6,12.6
		c-3.7,4.3-7.4,7.7-10.9,11.1C84.2,84.1,83.3,84.9,82.4,85.8L82.4,85.8L82.4,85.8z M59.9,88.6v6.7h19.5v-6.7
		C72.9,88.6,66.4,88.6,59.9,88.6L59.9,88.6z"/>
	<path class="st0" d="M48.2,43.4c-1.7,2.2-3.1,4-3.8,6.1c-0.8,2-1.1,3,0.6,0.9c1.6-2,3.1-3.9,5.2-5.7c0.2,0,0.3,0.1,0.5,0.1
		c19.6,3.9,33.9-4.9,31.4-33.5C67,16.5,45.6,14.4,47.8,41.2C47.9,42.2,48,42.9,48.2,43.4L48.2,43.4L48.2,43.4L48.2,43.4z M52.8,39.5
		c5.1-11,18.3-14.8,24.8-22.4C70.6,30.9,64.8,31.6,52.8,39.5L52.8,39.5L52.8,39.5z"/>
</g>
</svg>
