<svg xmlns="http://www.w3.org/2000/svg" width="75.304" height="87.709" viewBox="0 0 75.304 87.709"><defs><style>.a{fill:#757677;}.b{fill:#fabf8f;}.c{fill:#767777;}</style></defs><path class="a" d="M3305.4,1816.15a24.389,24.389,0,0,1-11.819-2.843,19.737,19.737,0,0,1-7.1-6.456c-3.773-5.784-4.259-18.29-4.615-27.421a55.274,55.274,0,0,0-.513-7.269,10.843,10.843,0,0,0-1.91-3.652,21,21,0,0,1-4.433-7.94l-.347-1.2a1.8,1.8,0,0,1,1.73-2.3h58.015a1.8,1.8,0,0,1,1.73,2.3l-.348,1.2h0a21,21,0,0,1-4.432,7.94,10.842,10.842,0,0,0-1.91,3.652,51.464,51.464,0,0,0-.408,7.007c-.228,8.788-.569,22.068-4.779,27.768C3319.745,1813.05,3313.4,1816.15,3305.4,1816.15Zm-26.565-55.482a17.921,17.921,0,0,0,3.326,5.476,14.173,14.173,0,0,1,2.594,4.829c.417,1.2.525,3.544.711,8.316.3,7.72.8,20.642,4.032,25.593,1.5,2.3,6.063,7.666,15.9,7.666,6.793,0,12.165-2.608,15.963-7.751,3.535-4.788,3.873-17.891,4.076-25.721.119-4.637.195-6.918.608-8.1a14.173,14.173,0,0,1,2.594-4.829,17.9,17.9,0,0,0,3.325-5.476Z" transform="translate(-3267.748 -1757.065)"/><path class="a" d="M3370.49,2207.567h-39.9a1.8,1.8,0,0,1-1.8-1.8v-4.342a6.1,6.1,0,0,1,6.1-6.1H3366.2a6.1,6.1,0,0,1,6.1,6.1v4.342A1.8,1.8,0,0,1,3370.49,2207.567Zm-38.095-3.6h36.293v-2.541a2.5,2.5,0,0,0-2.493-2.493h-31.307a2.5,2.5,0,0,0-2.493,2.493Z" transform="translate(-3312.616 -2119.858)"/><path class="a" d="M3446.436,2101.582a1.8,1.8,0,0,1-1.8-1.8V2081.06a1.8,1.8,0,0,1,3.6,0v18.721A1.8,1.8,0,0,1,3446.436,2101.582Z" transform="translate(-3408.51 -2023.777)"/><path class="a" d="M3562.277,1876.134a1.8,1.8,0,0,1-.932-3.344c4.174-2.518,10.655-6.959,12-8.949,3.752-5.547,2.854-11.822,1.847-13.5a4.642,4.642,0,0,0-5.375-1.564,1.8,1.8,0,1,1-1.24-3.383,8.215,8.215,0,0,1,9.707,3.1c1.854,3.1,2.516,10.763-1.954,17.372-2.368,3.5-12.687,9.75-13.125,10.015A1.792,1.792,0,0,1,3562.277,1876.134Z" transform="translate(-3504.401 -1829.763)"/><path class="a" d="M3252.829,1876.134a1.794,1.794,0,0,1-.929-.26l-.118-.071c-7.978-4.813-12.158-7.88-13.554-9.944-4.47-6.608-3.809-14.273-1.955-17.372a8.214,8.214,0,0,1,9.707-3.1,1.8,1.8,0,1,1-1.24,3.383c-1.759-.645-4.338-.17-5.375,1.564-1.006,1.682-1.9,7.957,1.847,13.5.718,1.062,3.458,3.464,12.433,8.878l.117.071a1.8,1.8,0,0,1-.932,3.344Z" transform="translate(-3234.853 -1829.763)"/><g transform="translate(26.415 17.323)"><path class="b" d="M3405.259,1864.64l3.1,6.284,6.935,1.008-5.019,4.891,1.186,6.907-6.2-3.261-6.2,3.261,1.185-6.907-5.017-4.891,6.933-1.008Z" transform="translate(-3394.022 -1863.439)"/><path class="c" d="M3393.283,1879.157a1.2,1.2,0,0,1-1.184-1.4l1.078-6.284-4.566-4.451a1.2,1.2,0,0,1,.666-2.048l6.31-.917,2.822-5.717a1.2,1.2,0,0,1,1.077-.669h0a1.2,1.2,0,0,1,1.077.669l2.821,5.717,6.31.917a1.2,1.2,0,0,1,.666,2.048l-4.565,4.451,1.078,6.284a1.2,1.2,0,0,1-1.743,1.266l-5.643-2.967-5.644,2.967A1.206,1.206,0,0,1,3393.283,1879.157Zm6.2-5.663a1.2,1.2,0,0,1,.559.138l4.048,2.128-.773-4.508a1.2,1.2,0,0,1,.345-1.063l3.275-3.193-4.526-.658a1.2,1.2,0,0,1-.9-.657l-2.024-4.1-2.024,4.1a1.2,1.2,0,0,1-.9.657l-4.526.658,3.275,3.193a1.2,1.2,0,0,1,.346,1.063l-.773,4.508,4.048-2.128A1.2,1.2,0,0,1,3399.486,1873.494Z" transform="translate(-3388.248 -1857.666)"/></g></svg>